<svg xmlns="http://www.w3.org/2000/svg" width="27" height="27" viewBox="0 0 27 27">
  <g id="dashboard" transform="translate(-55 -143)">
    <path id="Path" d="M65.406,143H56.969A1.971,1.971,0,0,0,55,144.969v5.063A1.971,1.971,0,0,0,56.969,152h8.437a1.971,1.971,0,0,0,1.969-1.969v-5.062A1.971,1.971,0,0,0,65.406,143Z" fill="#fff"/>
    <path id="Path-2" data-name="Path" d="M65.406,154.25H56.969A1.971,1.971,0,0,0,55,156.219v11.813A1.971,1.971,0,0,0,56.969,170h8.437a1.971,1.971,0,0,0,1.969-1.969V156.219A1.971,1.971,0,0,0,65.406,154.25Z" fill="#fff"/>
    <path id="Path-3" data-name="Path" d="M80.031,161H71.594a1.971,1.971,0,0,0-1.969,1.969v5.063A1.971,1.971,0,0,0,71.594,170h8.438A1.971,1.971,0,0,0,82,168.031v-5.062A1.971,1.971,0,0,0,80.031,161Z" fill="#fff"/>
    <path id="Path-4" data-name="Path" d="M80.031,143H71.594a1.971,1.971,0,0,0-1.969,1.969v11.813a1.971,1.971,0,0,0,1.969,1.969h8.438A1.971,1.971,0,0,0,82,156.781V144.969A1.971,1.971,0,0,0,80.031,143Z" fill="#fff"/>
  </g>
</svg>
