<svg xmlns="http://www.w3.org/2000/svg" xmlns:xlink="http://www.w3.org/1999/xlink" width="935" height="441" viewBox="0 0 935 441">
  <defs>
    <filter id="Rectangle" x="0" y="0" width="935" height="441" filterUnits="userSpaceOnUse">
      <feOffset input="SourceAlpha"/>
      <feGaussianBlur stdDeviation="2.5" result="blur"/>
      <feFlood flood-opacity="0.102"/>
      <feComposite operator="in" in2="blur"/>
      <feComposite in="SourceGraphic"/>
    </filter>
    <linearGradient id="linear-gradient" x1="0.5" x2="0.5" y2="1" gradientUnits="objectBoundingBox">
      <stop offset="0" stop-color="#005be7" stop-opacity="0.149"/>
      <stop offset="1" stop-color="#005be7" stop-opacity="0"/>
    </linearGradient>
    <filter id="Oval" x="487" y="162" width="65" height="65" filterUnits="userSpaceOnUse">
      <feOffset input="SourceAlpha"/>
      <feGaussianBlur stdDeviation="7.5" result="blur-2"/>
      <feFlood flood-color="#0d46c1" flood-opacity="0.502"/>
      <feComposite operator="in" in2="blur-2"/>
      <feComposite in="SourceGraphic"/>
    </filter>
  </defs>
  <g id="Patient_Status" data-name="Patient Status" transform="translate(7.5 7.5)">
    <g transform="matrix(1, 0, 0, 1, -7.5, -7.5)" filter="url(#Rectangle)">
      <rect id="Rectangle-2" data-name="Rectangle" width="920" height="426" rx="15" transform="translate(7.5 7.5)" fill="#fff"/>
    </g>
    <text id="Courbe_Status" data-name="Courbe Status" transform="translate(29 38)" fill="#1b1b29" font-size="18" font-family="Poppins-SemiBold, Poppins" font-weight="600"><tspan x="0" y="0">Courbe Status</tspan></text>
    <g id="Group_12" data-name="Group 12" transform="translate(344.702 375.028)">
      <text id="Passeport_en_cour" data-name="Passeport en cour" transform="translate(23.298 14.972)" fill="#35384d" font-size="14" font-family="Poppins-Regular, Poppins"><tspan x="0" y="0">Passeport en cour</tspan></text>
      <rect id="Rectangle-3" data-name="Rectangle" width="14" height="14" rx="2" transform="translate(0.298 3.972)" fill="#28285e"/>
      <text id="Passeport_livré" data-name="Passeport livré" transform="translate(190.298 14.972)" fill="#35384d" font-size="14" font-family="Poppins-Regular, Poppins"><tspan x="0" y="0">Passeport livré</tspan></text>
      <rect id="Rectangle-4" data-name="Rectangle" width="15" height="14" rx="2" transform="translate(166.298 3.972)" fill="#f36e23"/>
    </g>
    <g id="Group_6" data-name="Group 6" transform="translate(29.315 97.042)">
      <text id="_0" data-name="0" transform="translate(23.685 225.958)" fill="#9e9ea8" font-size="13" font-family="Poppins-Regular, Poppins"><tspan x="-8" y="0">0</tspan></text>
      <text id="_50" data-name="50" transform="translate(22.685 172.958)" fill="#9e9ea8" font-size="13" font-family="Poppins-Regular, Poppins"><tspan x="-16" y="0">50</tspan></text>
      <text id="_150" data-name="150" transform="translate(22.685 66.958)" fill="#9e9ea8" font-size="13" font-family="Poppins-Regular, Poppins"><tspan x="-20" y="0">150</tspan></text>
      <text id="_100" data-name="100" transform="translate(22.685 119.958)" fill="#9e9ea8" font-size="13" font-family="Poppins-Regular, Poppins"><tspan x="-20" y="0">100</tspan></text>
      <text id="_200" data-name="200" transform="translate(23.685 13.958)" fill="#9e9ea8" font-size="13" font-family="Poppins-Regular, Poppins"><tspan x="-23" y="0">200</tspan></text>
    </g>
    <g id="Group_7" data-name="Group 7" transform="translate(110.183 330.55)">
      <text id="Jan" transform="translate(-0.184 14.45)" fill="#9e9ea8" font-size="13" font-family="Poppins-Regular, Poppins"><tspan x="0" y="0">Jan</tspan></text>
      <text id="Apr" transform="translate(195.816 14.45)" fill="#9e9ea8" font-size="13" font-family="Poppins-Regular, Poppins"><tspan x="0" y="0">Apr</tspan></text>
      <text id="Feb" transform="translate(64.816 14.45)" fill="#9e9ea8" font-size="13" font-family="Poppins-Regular, Poppins"><tspan x="0" y="0">Feb</tspan></text>
      <text id="May" transform="translate(259.816 14.45)" fill="#9e9ea8" font-size="13" font-family="Poppins-Regular, Poppins"><tspan x="0" y="0">May</tspan></text>
      <text id="Mar" transform="translate(130.816 14.45)" fill="#9e9ea8" font-size="13" font-family="Poppins-Regular, Poppins"><tspan x="0" y="0">Mar</tspan></text>
      <text id="Jun" transform="translate(328.816 14.45)" fill="#9e9ea8" font-size="13" font-family="Poppins-Regular, Poppins"><tspan x="0" y="0">Jun</tspan></text>
      <text id="Jul" transform="translate(392.816 14.45)" fill="#9e9ea8" font-size="13" font-family="Poppins-Regular, Poppins"><tspan x="0" y="0">Jul</tspan></text>
      <text id="Aug" transform="translate(451.816 14.45)" fill="#9e9ea8" font-size="13" font-family="Poppins-Regular, Poppins"><tspan x="0" y="0">Aug</tspan></text>
      <text id="Sep" transform="translate(518.816 14.45)" fill="#9e9ea8" font-size="13" font-family="Poppins-Regular, Poppins"><tspan x="0" y="0">Sep</tspan></text>
      <text id="Oct" transform="translate(583.816 14.45)" fill="#9e9ea8" font-size="13" font-family="Poppins-Regular, Poppins"><tspan x="0" y="0">Oct</tspan></text>
      <text id="Nop" transform="translate(647.816 14.45)" fill="#9e9ea8" font-size="13" font-family="Poppins-Regular, Poppins"><tspan x="0" y="0">Nop</tspan></text>
      <text id="Dec" transform="translate(716.816 14.45)" fill="#9e9ea8" font-size="13" font-family="Poppins-Regular, Poppins"><tspan x="0" y="0">Dec</tspan></text>
    </g>
    <rect id="Rectangle-5" data-name="Rectangle" width="818" height="1" transform="translate(73 161)" fill="#f7f9fb"/>
    <rect id="Rectangle-6" data-name="Rectangle" width="818" height="1" transform="translate(73 267)" fill="#f7f9fb"/>
    <rect id="Rectangle-7" data-name="Rectangle" width="818" height="1" transform="translate(73 108)" fill="#f7f9fb"/>
    <rect id="Rectangle-8" data-name="Rectangle" width="818" height="1" transform="translate(73 213)" fill="#f7f9fb"/>
    <rect id="Rectangle-9" data-name="Rectangle" width="818" height="1" transform="translate(73 319)" fill="#f7f9fb"/>
    <g id="Group_9" data-name="Group 9" transform="translate(73.297 106.839)">
      <path id="Path_2" data-name="Path 2" d="M1262.889,481.979s-50.787,49.065-98.656,49.065-80.807-86.2-171.942-81.986-74.9,68.22-150.7,68.22-95.778-79.063-151.847-89.047S584.44,471.8,564.588,489.888,501.3,517.277,445.975,486.97" transform="translate(-445.053 -427)" fill="none" stroke="#28285e" stroke-linecap="round" stroke-linejoin="round" stroke-width="5"/>
      <path id="Path_2-2" data-name="Path 2" d="M445,639.873h817.836V481.979s-50.787,49.065-98.656,49.065-80.807-86.2-171.942-81.986-74.9,68.22-150.7,68.22-95.778-79.063-151.847-89.047-105.3,43.567-125.154,61.658-63.291,27.389-118.613-2.918C445.922,551.35,445,639.873,445,639.873Z" transform="translate(-445 -427)" fill="url(#linear-gradient)"/>
    </g>
    <path id="Path_3" data-name="Path 3" d="M1262.836,535.547s-69.7-63.912-131.623-57.135-92.065,69.028-147.349,69.028-80.444-70.269-132.338-60.05S790.658,554.406,734.2,554.406s-89.719-85.842-163.09-85.842S445,441,445,441" transform="translate(-371.703 -320.925)" fill="none" stroke="#f36e23" stroke-linecap="round" stroke-linejoin="round" stroke-width="5"/>
    <g id="Rectangle-10" data-name="Rectangle" transform="translate(511 184)" fill="none" stroke="#9d9dc7" stroke-width="1" stroke-dasharray="9 6">
      <rect width="3" height="136" stroke="none"/>
      <rect x="0.5" y="0.5" width="2" height="135" fill="none"/>
    </g>
    <g transform="matrix(1, 0, 0, 1, -7.5, -7.5)" filter="url(#Oval)">
      <g id="Oval-2" data-name="Oval" transform="translate(514.5 189.5)" fill="#ede9f2">
        <path d="M 5 12.5 C 0.8644899725914001 12.5 -2.5 9.135510444641113 -2.5 5 C -2.5 0.8644899725914001 0.8644899725914001 -2.5 5 -2.5 C 9.135510444641113 -2.5 12.5 0.8644899725914001 12.5 5 C 12.5 9.135510444641113 9.135510444641113 12.5 5 12.5 Z" stroke="none"/>
        <path d="M 5 0 C 2.238580226898193 0 0 2.238580226898193 0 5 C 0 7.761420249938965 2.238580226898193 10 5 10 C 7.761420249938965 10 10 7.761420249938965 10 5 C 10 2.238580226898193 7.761420249938965 0 5 0 M 5 -5 C 10.51401996612549 -5 15 -0.5140199661254883 15 5 C 15 10.51401996612549 10.51401996612549 15 5 15 C -0.5140199661254883 15 -5 10.51401996612549 -5 5 C -5 -0.5140199661254883 -0.5140199661254883 -5 5 -5 Z" stroke="none" fill="#9d9dc7"/>
      </g>
    </g>
    <g id="Group_15" data-name="Group 15" transform="translate(799.421 21.228)">
      <text id="L_année" data-name="L’année" transform="translate(86.579 14.772)" fill="#35384d" font-size="14" font-family="Poppins-Medium, Poppins" font-weight="500"><tspan x="-54" y="0">L’année</tspan></text>
      <g id="down-arrow" transform="translate(0 9.045)">
        <path id="Path" d="M1225.439,346.643l-.414-.417a.693.693,0,0,0-.979,0l-4.723,4.724-4.729-4.729a.693.693,0,0,0-.978,0l-.414.414a.692.692,0,0,0,0,.978l5.63,5.65a.707.707,0,0,0,.49.222h0a.707.707,0,0,0,.489-.222l5.625-5.635a.7.7,0,0,0,.2-.494A.691.691,0,0,0,1225.439,346.643Z" transform="translate(-1213 -346.019)" fill="#28285e"/>
      </g>
    </g>
  </g>
</svg>
