<svg xmlns="http://www.w3.org/2000/svg" width="48" height="48" viewBox="0 0 48 48">
  <g id="Income" transform="translate(0.179 -0.324)">
    <path id="Shape" d="M24,48A24,24,0,0,1,7.03,7.029,24,24,0,1,1,40.97,40.971,23.843,23.843,0,0,1,24,48ZM18.649,32.232a1.588,1.588,0,1,0,0,3.176h3.515v3.515a1.588,1.588,0,1,0,3.175,0V35.408h.113a6.69,6.69,0,1,0,0-13.381h-3.4a3.515,3.515,0,0,1,0-7.029h6.8a1.588,1.588,0,1,0,0-3.175H25.339V8.308a1.588,1.588,0,1,0-3.175,0v3.515H22.05a6.69,6.69,0,1,0,0,13.381h3.4a3.514,3.514,0,1,1,0,7.029Z" transform="translate(-0.179 0.324)" fill="#fff"/>
  </g>
</svg>
