<svg xmlns="http://www.w3.org/2000/svg" width="61.78" height="66.532" viewBox="0 0 61.78 66.532">
  <g id="_x30_6" transform="translate(-3 -2)">
    <path id="Tracé_10601" data-name="Tracé 10601" d="M22.009,2A19,19,0,0,0,10.034,6.286a2.342,2.342,0,0,0-2.282-1.91A2.376,2.376,0,0,0,5.376,6.752V11.5a2.376,2.376,0,0,0,2.376,2.376H12.5A2.376,2.376,0,0,0,14.881,11.5a2.345,2.345,0,0,0-1.217-2.031A14.241,14.241,0,1,1,7.752,21.009a2.376,2.376,0,1,0-4.752,0A19.009,19.009,0,1,0,22.009,2Z" transform="translate(0 0)" fill="#fff"/>
    <path id="Tracé_10602" data-name="Tracé 10602" d="M16.5,17.881A2.376,2.376,0,0,0,18.881,15.5V8.376a2.376,2.376,0,1,0-4.752,0v4.752H9.376a2.376,2.376,0,0,0,0,4.752Z" transform="translate(5.505 5.505)" fill="#fff"/>
    <path id="Tracé_10603" data-name="Tracé 10603" d="M34.338,13.752a2.376,2.376,0,0,1,2.376,2.376V58.9h4.752V11.376A2.376,2.376,0,0,0,39.09,9H19.941a21.494,21.494,0,0,1,.14,2.376,21.494,21.494,0,0,1-.14,2.376Z" transform="translate(23.313 9.633)" fill="#fff"/>
    <path id="Tracé_10604" data-name="Tracé 10604" d="M48.018,54.77V14.376A2.376,2.376,0,0,0,45.642,12H33.211a21.319,21.319,0,0,1-4.941,9.5H38.514a2.376,2.376,0,0,1,0,4.752H22.128a21.228,21.228,0,0,1-9.752,2.376A21.5,21.5,0,0,1,10,28.493V54.77ZM19.5,31.009H38.514a2.376,2.376,0,0,1,0,4.752H19.5a2.376,2.376,0,0,1,0-4.752Zm0,9.5H38.514a2.376,2.376,0,0,1,0,4.752H19.5a2.376,2.376,0,0,1,0-4.752Z" transform="translate(9.633 13.761)" fill="#fff"/>
  </g>
</svg>
