<?xml version="1.0" encoding="utf-8"?>
<!-- Generator: Adobe Illustrator 24.0.3, SVG Export Plug-In . SVG Version: 6.00 Build 0)  -->
<svg version="1.1" id="Calque_1" xmlns="http://www.w3.org/2000/svg" xmlns:xlink="http://www.w3.org/1999/xlink" x="0px" y="0px"
	 viewBox="0 0 338.1 114" style="enable-background:new 0 0 338.1 114;" xml:space="preserve">
<style type="text/css">
	.st0{opacity:0.55;}
	.st1{fill:url(#SVGID_1_);}
	.st2{fill:url(#SVGID_2_);}
	.st3{fill:url(#SVGID_3_);}
	.st4{opacity:0.63;}
	.st5{fill:url(#SVGID_4_);}
	.st6{fill:#FFFFFF;}
	.st7{fill:url(#SVGID_5_);}
	.st8{fill:url(#SVGID_6_);}
	.st9{fill:url(#SVGID_7_);}
	.st10{fill:url(#SVGID_8_);}
	.st11{fill:url(#SVGID_9_);}
</style>
<title>Plan de travail 1</title>
<g class="st0">
	
		<linearGradient id="SVGID_1_" gradientUnits="userSpaceOnUse" x1="-18.0934" y1="172.7547" x2="-8.0734" y2="172.7547" gradientTransform="matrix(0.94 0.34 0.34 -0.96 -6.6637 196.4446)">
		<stop  offset="0" style="stop-color:#FFFFFF"/>
		<stop  offset="1" style="stop-color:#EA6514"/>
	</linearGradient>
	<path class="st1" d="M37.8,31c-2.7-1.1-4-4.1-2.9-6.8c0.9-2.6,3.8-4,6.4-3s4,3.8,3,6.4l0,0C43.5,30.3,40.6,31.9,37.8,31z
		 M41.3,21.2c-2.6-0.8-5.3,0.6-6.1,3.2c-1,2.4,0.1,5.2,2.5,6.2s5.2-0.1,6.2-2.5c0.1-0.2,0.1-0.4,0.2-0.6C45,25,43.8,22.2,41.3,21.2
		L41.3,21.2z"/>
</g>
<g class="st0">
	
		<linearGradient id="SVGID_2_" gradientUnits="userSpaceOnUse" x1="-15.5954" y1="192.0003" x2="-9.3954" y2="192.0003" gradientTransform="matrix(1.01 0.36 0.34 -0.96 6.2863 199.4346)">
		<stop  offset="0" style="stop-color:#FFFFFF"/>
		<stop  offset="1" style="stop-color:#EA6514"/>
	</linearGradient>
	<path class="st2" d="M57.6,13.7c-1.7-0.6-2.6-2.5-2-4.3s2.5-2.6,4.3-2c1.7,0.6,2.6,2.5,2,4.2C61.2,13.4,59.3,14.3,57.6,13.7z
		 M59.7,7.6c-1.6-0.6-3.4,0.3-4,1.9s0.3,3.4,1.9,4c1.6,0.6,3.4-0.3,4-1.9c0,0,0,0,0,0C62.2,9.9,61.4,8.2,59.7,7.6z"/>
</g>
<g class="st0">
	
		<linearGradient id="SVGID_3_" gradientUnits="userSpaceOnUse" x1="8.3296" y1="184.5744" x2="11.0696" y2="184.5744" gradientTransform="matrix(1.04 0.25 0.24 -0.99 21.0239 183.0128)">
		<stop  offset="0" style="stop-color:#FFFFFF"/>
		<stop  offset="1" style="stop-color:#EA6514"/>
	</linearGradient>
	<path class="st3" d="M75,4.3c-0.8-0.3-1.3-1.2-1.1-2C74,1.5,74.8,1,75.5,1.1c0,0,0.1,0,0.1,0c0.8,0.3,1.3,1.2,1.1,2
		c-0.1,0.8-0.8,1.3-1.6,1.2C75.1,4.3,75,4.3,75,4.3z M75.6,1.2c-0.7-0.2-1.5,0.3-1.6,1c0,0,0,0.1,0,0.1c-0.2,0.8,0.2,1.6,1,1.9
		c0.7,0.2,1.4-0.3,1.6-1c0,0,0-0.1,0-0.1C76.8,2.3,76.4,1.5,75.6,1.2L75.6,1.2z"/>
</g>
<g class="st4">
	
		<linearGradient id="SVGID_4_" gradientUnits="userSpaceOnUse" x1="-32.4476" y1="141.0947" x2="-14.9076" y2="141.0947" gradientTransform="matrix(0.95 0.34 0.34 -0.94 -6.3037 194.5391)">
		<stop  offset="0" style="stop-color:#FFFFFF"/>
		<stop  offset="1" style="stop-color:#EA6514"/>
	</linearGradient>
	<path class="st5" d="M15.9,62.5c-4.7-1.9-7.1-7.2-5.2-12c1.8-4.5,6.8-6.9,11.4-5.4c4.7,1.9,7.1,7.2,5.2,12
		C25.6,61.6,20.6,64,15.9,62.5z M21.9,45.6c-4.6-1.4-9.4,1.2-10.8,5.8c-1.3,4.3,0.9,8.8,5,10.5c4.5,1.5,9.5-0.9,11-5.4
		C28.7,52.1,26.4,47.3,21.9,45.6L21.9,45.6z"/>
</g>
<path class="st6" d="M162.5,59.2V48.3c0-0.9,0.2-1.2,1.2-1.2h4c0.7,0,1,0.3,1,1v34.9c0,0.8-0.3,1.1-1.1,1.1h-3.7
	c-0.8,0-1.1-0.3-1.1-1.1v-1c-0.1,0-0.2,0-0.2,0.1c-1.6,1.5-3.8,2.4-6,2.6c-4.3,0.6-8.6-1-11.6-4.2c-1.9-2-3-4.6-3.4-7.3
	c-0.5-3-0.1-6.1,1.1-9c1.8-4.4,5.2-6.7,9.8-7.5c3-0.6,6.1,0,8.7,1.6C161.6,58.5,162,58.8,162.5,59.2z M147.7,70.5h0.2
	c-0.1,1.5,0.2,3.1,0.7,4.5c1.1,3,4,5,7.2,4.9c3.3,0,6.1-2.3,6.8-5.5c0.2-0.8,0.3-1.6,0.4-2.4c0.2-2.3-0.1-4.5-1-6.6
	c-1.3-2.7-4-4.3-7-4.1c-3,0-5.7,2.1-6.5,5C148.1,67.7,147.9,69.1,147.7,70.5z"/>
<path class="st6" d="M196.8,81.4l-1.1,0.7c-4.2,2.5-9.3,3.3-14.1,2c-1.7-0.4-3.2-1.3-4.4-2.5c-2.7-2.9-2.6-7.5,0.3-10.2
	c0.3-0.3,0.6-0.5,1-0.8c1.9-1.2,4.1-2,6.4-2.2c3.4-0.5,6.8-0.9,10.2-1.4c1.3-0.2,1.2,0,1.1-1.5c0.1-1.6-1-3.1-2.6-3.5
	c-2.6-0.9-5.5-0.9-8.1-0.1c-1.5,0.6-2.6,1.8-3,3.4c-0.4,1.1-0.4,1.1-1.5,0.9s-2.4-0.3-3.6-0.5c-1-0.1-1.2-0.5-1-1.4
	c0.7-3,3-5.4,5.9-6.4c4.8-1.7,10-1.8,14.9-0.3c2.5,0.6,4.4,2.5,5,5c0.2,1.1,0.3,2.2,0.3,3.4c0,3.2,0,6.4,0,9.7
	c0,1.4,0.1,2.8,0.2,4.2c0.2,1.1,0.6,2.1,1,3.1c0.3,0.8,0.1,1.3-0.7,1.3c-1.5,0-3.1,0-4.6,0c-0.4,0-0.7-0.2-0.8-0.5
	C197.4,83,197.1,82.2,196.8,81.4z M196.3,71.4h-0.3c-2.9,0.5-5.8,1-8.8,1.5c-1.3,0.2-2.5,0.6-3.7,1.1c-1.3,0.5-1.9,1.9-1.5,3.2
	c0.3,1.2,1.3,2.1,2.5,2.3c3.2,1,6.6,0.4,9.4-1.5C196.2,76.5,196.4,74,196.3,71.4L196.3,71.4z"/>
<path class="st6" d="M114.4,72.3c0.1,0.4,0.1,0.8,0.2,1.2c0.6,3.4,3.5,6,7,6.3c1.2,0.1,2.4,0,3.6-0.2c2.2-0.5,4.1-2.1,4.8-4.2
	c0.1-0.5,0.6-0.9,1.2-0.8c0,0,0.1,0,0.1,0c1.4,0.2,2.8,0.3,4.2,0.5c0.9,0.1,1.2,0.6,0.9,1.4c-1,3.1-3.4,5.6-6.5,6.8
	c-4.8,2-10.2,1.9-14.9-0.3c-4.3-2-6.5-5.6-7-10.2c-0.3-2.2-0.1-4.5,0.4-6.6c1.5-5.4,5.3-8.4,10.6-9.4c3.4-0.7,6.9-0.4,10.1,1
	c4.6,2.1,7,5.8,7.5,10.9c0.1,1,0.1,1.9,0.1,2.9c0,0.6-0.2,0.7-0.8,0.7c-6.9,0-13.8,0-20.7,0L114.4,72.3z M114.7,67.5h15.5
	c-0.1-1.4-0.7-2.8-1.6-3.8c-1.4-1.5-3.3-2.3-5.3-2.4c-2.5-0.3-5,0.6-6.8,2.4C115.5,64.8,114.9,66.1,114.7,67.5z"/>
<path class="st6" d="M62.2,65.6c0-0.1-0.1-0.2-0.1-0.3c-0.4-2.4-1.9-3.5-4.2-3.9c-1.8-0.3-3.6-0.2-5.3,0.2c-0.7,0.2-1.4,0.6-1.9,1.1
	c-0.7,0.5-0.8,1.6-0.3,2.3c0.1,0.2,0.3,0.3,0.4,0.4c0.6,0.4,1.2,0.7,1.9,0.9c3.4,0.9,6.8,1.7,10.2,2.6c0.6,0.2,1.3,0.4,1.9,0.7
	c5.3,2.3,5.4,8,2.4,11.3c-1.6,1.7-3.8,2.9-6.1,3.3c-3.7,0.9-7.5,0.7-11.2-0.4c-3.4-1-6-3.8-6.8-7.3c-0.2-0.7,0.1-1.2,0.7-1.3
	c1.7-0.2,3.4-0.4,5.1-0.7c0.1,0.2,0.1,0.4,0.2,0.6c0.3,2.3,2.1,4.1,4.4,4.5c2,0.5,4,0.5,6-0.1c0.9-0.3,1.7-0.7,2.3-1.3
	c0.9-0.7,1.1-2,0.4-3c-0.3-0.4-0.7-0.7-1.2-0.8c-1.8-0.6-3.6-1-5.5-1.4c-2.2-0.6-4.5-1.2-6.7-1.8c-1.3-0.4-2.4-1.1-3.3-2.1
	c-2.7-3-2.2-7.5,1.2-10.1c1.7-1.2,3.6-1.9,5.6-2.2c3.5-0.6,7.2-0.2,10.5,1.1c2.6,1,4.4,3.3,4.9,6c0.1,0.5-0.1,1-0.6,1
	C65.8,65.2,64,65.4,62.2,65.6z"/>
<path class="st6" d="M81.5,59.8c1.7-1.6,3.9-2.6,6.2-3c2.9-0.5,5.8-0.2,8.5,0.8c3.1,1.1,5.1,4.1,5.1,7.3c0.1,6.1,0.1,12.1,0.1,18.2
	c0,0.7-0.3,1-1.1,1h-4c-0.8,0-1.1-0.3-1.1-1.1c0-5.2,0-10.3,0-15.5c0-0.7-0.1-1.4-0.1-2.1c-0.2-1.9-1.6-3.5-3.5-3.8
	c-1.9-0.5-4-0.3-5.8,0.5c-2,0.8-3.4,2.8-3.5,4.9c-0.1,0.8-0.1,1.6-0.1,2.5c0,4.4,0,8.9,0,13.3c0,1-0.3,1.2-1.2,1.2h-4
	c-0.7,0-1.1-0.3-1.1-1.1c0-8.3,0-16.7,0-25c0-0.8,0.3-1.1,1.1-1.1h3.6c0.8,0,1.1,0.3,1.1,1.1L81.5,59.8z"/>
<path class="st6" d="M217.2,70.6c0,4.1,0,8.2,0,12.3c0,1-0.2,1.2-1.2,1.2h-3.9c-0.8,0-1.1-0.3-1.1-1.1V58.1c0-0.8,0.3-1.1,1.1-1.1h4
	c0.8,0,1.1,0.3,1.1,1.1C217.2,62.3,217.2,66.5,217.2,70.6z"/>
<path class="st6" d="M214.1,53.3c-0.7,0-1.4,0-2.1,0c-0.5,0.1-0.9-0.3-1-0.8c0-0.1,0-0.2,0-0.2c0-1.4,0-2.9,0-4.3
	c0-0.5,0.3-0.9,0.8-0.9c0,0,0.1,0,0.1,0h4.4c0.4,0,0.8,0.3,0.9,0.7c0,0.1,0,0.1,0,0.2c0,1.5,0,2.9,0,4.3c0,0.5-0.3,0.9-0.8,0.9
	c-0.1,0-0.1,0-0.2,0C215.5,53.3,214.8,53.3,214.1,53.3z"/>
<linearGradient id="SVGID_5_" gradientUnits="userSpaceOnUse" x1="0.72" y1="52.4706" x2="34.72" y2="52.4706" gradientTransform="matrix(1 0 0 -1 0 115.2756)">
	<stop  offset="0" style="stop-color:#EA6514"/>
	<stop  offset="1" style="stop-color:#FFFFFF"/>
</linearGradient>
<path class="st7" d="M17.7,40.6c-9.4,0-17,9.9-17,22.2S8.3,85,17.7,85s17-9.9,17-22.2S27.1,40.6,17.7,40.6z M19.2,62.8
	c-4.9-0.5-8.6-4.9-8.1-9.8c0.4-4.3,3.8-7.7,8.1-8.1c4.9,0.5,8.6,4.9,8.1,9.8C26.9,59,23.5,62.4,19.2,62.8z"/>
<linearGradient id="SVGID_6_" gradientUnits="userSpaceOnUse" x1="0.72" y1="52.4706" x2="34.72" y2="52.4706" gradientTransform="matrix(1 0 0 -1 0 115.2756)">
	<stop  offset="0" style="stop-color:#EA6514"/>
	<stop  offset="1" style="stop-color:#FFFFFF"/>
</linearGradient>
<path class="st8" d="M17.7,40.6c-9.4,0-17,9.9-17,22.2S8.3,85,17.7,85s17-9.9,17-22.2S27.1,40.6,17.7,40.6z M19.2,62.8
	c-4.9-0.5-8.6-4.9-8.1-9.8c0.4-4.3,3.8-7.7,8.1-8.1c4.9,0.5,8.6,4.9,8.1,9.8C26.9,59,23.5,62.4,19.2,62.8z"/>
<linearGradient id="SVGID_7_" gradientUnits="userSpaceOnUse" x1="28.54" y1="84.0606" x2="49.09" y2="84.0606" gradientTransform="matrix(1 0 0 -1 0 115.2756)">
	<stop  offset="0" style="stop-color:#EA6514"/>
	<stop  offset="1" style="stop-color:#FFFFFF"/>
</linearGradient>
<path class="st9" d="M38.8,18.3c-5.7,0-10.3,5.8-10.3,12.9s4.6,12.9,10.3,12.9s10.3-5.8,10.3-12.9S44.5,18.3,38.8,18.3z M39.6,31.2
	c-2.9,0.1-5.3-2.1-5.4-4.9s2.1-5.3,4.9-5.4s5.3,2.1,5.4,4.9c0,0.1,0,0.2,0,0.3C44.6,28.8,42.4,31.1,39.6,31.2z"/>
<linearGradient id="SVGID_8_" gradientUnits="userSpaceOnUse" x1="51.98" y1="101.8956" x2="64.67" y2="101.8956" gradientTransform="matrix(1 0 0 -1 0 115.2756)">
	<stop  offset="0" style="stop-color:#EA6514"/>
	<stop  offset="1" style="stop-color:#FFFFFF"/>
</linearGradient>
<path class="st10" d="M58.3,5.4c-3.5,0-6.3,3.6-6.3,8s2.8,8,6.3,8s6.3-3.6,6.3-8S61.8,5.4,58.3,5.4z M58.8,13.8
	c-1.8,0-3.2-1.5-3.1-3.3c0-1.7,1.4-3.1,3.1-3.1c1.7,0,3.1,1.4,3.1,3.1C62,12.3,60.6,13.7,58.8,13.8C58.8,13.8,58.8,13.8,58.8,13.8z"
	/>
<linearGradient id="SVGID_9_" gradientUnits="userSpaceOnUse" x1="72.2" y1="110.9256" x2="77.87" y2="110.9256" gradientTransform="matrix(1 0 0 -1 0 115.2756)">
	<stop  offset="0" style="stop-color:#EA6514"/>
	<stop  offset="1" style="stop-color:#FFFFFF"/>
</linearGradient>
<path class="st11" d="M75,0.4c-1.6,0-2.8,1.8-2.8,4s1.3,4,2.8,4s2.8-1.8,2.8-4S76.6,0.4,75,0.4z M75.3,4.4c-0.8-0.1-1.5-0.8-1.4-1.6
	C73.7,2,74.3,1.3,75,1.1s1.5,0.4,1.6,1.2c0,0.1,0,0.3,0,0.4C76.7,3.5,76.1,4.2,75.3,4.4L75.3,4.4z"/>
<path class="st6" d="M311.2,97.6c0,0.9-0.6,1.7-1.4,2c-0.9,0.3-1.9,0-2.5-0.7c-0.6-0.7-0.5-1.7,0.1-2.3c0.4-0.5,0.5-0.7,0-1.2
	c-0.5-0.7-0.4-1.6,0.2-2.1c0,0,0,0,0,0c0.8-0.6,1.9-0.7,2.7-0.2c0.7,0.4,0.9,1.4,0.5,2.1c0,0,0,0,0,0c-0.2,0.3-0.5,0.7-0.3,1.1
	c0.1,0.2,0.4,0.4,0.5,0.6C311.1,97,311.2,97.3,311.2,97.6 M310.3,97.8v-0.2c-0.1-0.7-0.7-1.3-1.4-1.4h-0.2c-0.7,0-0.9,0.7-0.9,1.2
	c-0.1,0.7,0.5,1.3,1.2,1.4c0,0,0.1,0,0.1,0C309.7,98.9,310.2,98.4,310.3,97.8 M309,93.4c-0.3,0-0.6,0.1-0.9,0.4
	c-0.3,0.3-0.3,0.9,0,1.2c0.3,0.4,0.7,0.6,1.1,0.6c0.7,0,0.8-0.6,0.8-1.1c0-0.6-0.4-1-1-1C309.1,93.4,309,93.4,309,93.4"/>
<path class="st6" d="M296.4,96.1c0.1,0.8,0,1.6-0.3,2.4c-0.3,0.7-1,1.2-1.8,1.2c-0.8,0.1-1.5-0.4-1.8-1.2c-0.6-1.5-0.6-3.2,0-4.7
	c0.3-0.7,1-1.2,1.8-1.1c0.8,0,1.5,0.5,1.7,1.2C296.4,94.6,296.5,95.3,296.4,96.1 M295.5,96.1c0.1-0.6,0-1.3-0.2-1.9
	c-0.1-0.5-0.5-0.8-1-0.8c-0.5,0-1,0.3-1,0.8c-0.3,1.2-0.3,2.5,0,3.7c0.1,0.5,0.5,0.9,1,0.8c0.5,0,0.9-0.4,1-0.9
	C295.5,97.3,295.5,96.7,295.5,96.1"/>
<path class="st6" d="M306.4,96.1c0,0.4,0,0.8,0,1.1c0,0.4-0.1,0.8-0.3,1.2c-0.3,0.8-1,1.3-1.9,1.2c-0.8,0-1.5-0.5-1.7-1.2
	c-0.5-1.5-0.5-3.1,0-4.6c0.3-0.7,1-1.2,1.8-1.2c0.8-0.1,1.5,0.4,1.8,1.2c0.2,0.5,0.3,1.1,0.3,1.7C306.3,95.7,306.3,95.9,306.4,96.1
	 M303,96.1c0,0.2,0,0.4,0,0.7s0.1,0.7,0.1,1c0,0,0,0.1,0,0.1c0.1,0.5,0.5,0.9,1,0.9c0.5,0,0.9-0.4,1-0.8c0.3-1.2,0.3-2.5,0-3.7
	c-0.1-0.5-0.5-0.9-1-0.8c-0.5,0-0.9,0.4-1,0.9c-0.1,0.3-0.1,0.6-0.1,0.8c0,0.3-0.1,0.5-0.1,0.8L303,96.1z"/>
<path class="st6" d="M281.1,99.6c-0.3,0-0.7,0-1-0.1l-0.2-0.1c-0.2-0.1-0.5-0.2-0.7-0.3c-0.2-0.1-0.3-0.3-0.2-0.5
	c0-0.1,0-0.2,0.1-0.3c0.2-0.5,0.5-0.1,0.7,0.1c0.6,0.3,1.3,0.4,1.9,0.3c0.5-0.1,0.9-0.5,1-1c0.1-0.5-0.3-1-0.8-1.1
	c-0.5-0.2-1-0.2-1.5-0.4c-0.3-0.1-0.6-0.3-0.9-0.6c-0.2-0.3-0.3-0.6-0.3-1c0-0.8,0.4-1.5,1.2-1.8c0.5-0.2,1-0.3,1.5-0.2
	c0.2,0,0.5,0.1,0.7,0.2c0.2,0,0.4,0.1,0.6,0.2c0.2,0.1,0.2,0.3,0.2,0.5c0,0.1,0,0.2-0.1,0.3c0,0.1-0.1,0.2-0.3,0.2s-0.2-0.2-0.3-0.3
	c-0.2-0.1-0.4-0.2-0.6-0.3c-0.4-0.2-0.9-0.2-1.3,0c-0.4,0.2-0.6,0.5-0.6,0.9c0,0.4,0.2,0.7,0.6,0.9c0.4,0.2,0.8,0.3,1.3,0.4
	c1.2,0.3,1.7,0.9,1.6,1.9c0,0.4-0.2,0.7-0.4,1c-0.2,0.3-0.5,0.5-0.9,0.7C281.9,99.5,281.5,99.6,281.1,99.6"/>
<path class="st6" d="M316.2,95.7c0.1,0.8-0.1,1.7-0.5,2.5c-0.5,0.9-1.4,1.5-2.5,1.5c-0.4,0-0.8,0-0.8-0.5c0-0.1,0-0.3,0.1-0.4
	c0.1,0,0.2,0,0.3,0c0.1,0,0.2,0.1,0.3,0.1c0.4,0,0.7,0,1.1-0.2c0.2-0.1,0.3-0.2,0.4-0.3c0.1-0.1,0.2-0.3,0.3-0.4l0,0
	c0.1-0.2,0.2-0.4,0.2-0.6c0.1-0.2,0.1-0.4-0.1-0.5l-0.1-0.1c-0.2-0.1-0.4,0.1-0.6,0.2c-1,0.3-2-0.2-2.4-1.2c0-0.1-0.1-0.2-0.1-0.2
	c-0.3-1.2,0.4-2.4,1.5-2.8c1.1-0.3,2.2,0.3,2.5,1.4c0,0,0,0,0,0C316.2,94.6,316.2,95.2,316.2,95.7 M315.3,95.2c0-1-0.5-1.7-1.3-1.7
	c-0.7,0-1.2,0.6-1.2,1.3c0,0,0,0.1,0,0.1c0,0.7,0.5,1.2,1.2,1.2c0.1,0,0.2,0,0.3,0C314.8,96.1,315.4,96,315.3,95.2"/>
<path class="st6" d="M299.4,92.9h1.3c0.3,0,0.4,0.1,0.4,0.4s-0.2,0.4-0.4,0.4c-0.6,0-1.2,0-1.7,0s-0.7,0.2-0.6,0.7s-0.1,0.9,0.6,0.9
	c0.9-0.2,1.8,0.4,2.1,1.3c0.3,0.8,0.1,1.7-0.5,2.4c-0.7,0.7-1.8,0.9-2.7,0.5c-0.4-0.1-0.8-0.3-0.6-0.8c0.2-0.7,0.6-0.1,0.8,0
	c1.3,0.4,2.1,0,2.2-1.1s-0.6-1.6-1.9-1.4c-0.9,0.2-1-0.1-0.9-0.8c0-0.2,0-0.4,0-0.5C297.5,92.9,297.5,92.9,299.4,92.9"/>
<path class="st6" d="M274.8,96.2c0-0.9,0-1.8,0-2.7c0-0.5,0.1-0.7,0.6-0.6c0.9,0,1.9,0,2.8,0c0.3,0,0.5,0.1,0.5,0.4
	s-0.3,0.4-0.6,0.4c-0.6,0-1.2,0-1.9,0c-0.2,0-0.4,0-0.5,0.2c-0.1,0.2-0.1,0.4-0.1,0.6c0,0.2,0,0.4,0,0.6c0,0.2,0,0.3,0.2,0.4
	c0.1,0.1,0.3,0.1,0.5,0.1c0.5,0,1.1,0,1.6,0c0.3,0,0.7-0.1,0.7,0.4s-0.4,0.4-0.6,0.4h-0.4c-1.9,0-1.9,0-1.9,2v0.7
	c0,0.3,0,0.5-0.4,0.6s-0.5-0.3-0.5-0.6L274.8,96.2"/>
<path class="st6" d="M291.4,93.7c0,0.3-0.1,0.6-0.3,0.9l-2.2,4.4c-0.1,0.2-0.2,0.3-0.2,0.5c-0.2,0.3-0.5,0.3-0.8,0.2c0,0,0,0,0,0
	c-0.2-0.2,0-0.4,0.1-0.6c0.8-1.5,1.5-3.1,2.4-4.6c0.3-0.6,0.2-0.7-0.4-0.7s-1.4,0-2.1,0c-0.3,0-0.5,0-0.5-0.4s0.3-0.4,0.5-0.4
	c1,0,2,0,3.1,0C291.4,92.9,291.4,93.3,291.4,93.7"/>
<polygon class="st6" points="300.8,57.9 300.8,62.5 301.6,62.5 301.6,57.1 300.9,57.1 299.5,57.8 299.7,58.3 "/>
<path class="st6" d="M297,57.7c1.1,0,1.1,0.8,1.1,2.1s-0.1,2.1-1.1,2.1s-1.1-0.8-1.1-2.1S295.9,57.7,297,57.7 M295,59.8
	c0,1.8,0.4,2.8,2,2.8s2-1,2-2.8s-0.5-2.8-2-2.8S295,58,295,59.8"/>
<path class="st6" d="M297.2,65.3c-0.2,0-0.3,0.1-0.3,0.3c0,0,0,0,0,0c0,0.2,0.1,0.3,0.3,0.3c0.2,0,0.3-0.1,0.3-0.3
	C297.5,65.4,297.3,65.3,297.2,65.3"/>
<rect x="296.9" y="66.4" class="st6" width="0.5" height="2.8"/>
<path class="st6" d="M294.1,49.4c1.1,0,1.5,0.7,1.5,2.1s-0.4,2.1-1.5,2.1s-1.5-0.7-1.5-2.1S293,49.4,294.1,49.4 M294.1,54.2
	c1.6,0,2.3-1,2.3-2.8s-0.7-2.8-2.3-2.8s-2.3,0.9-2.3,2.8S292.5,54.2,294.1,54.2"/>
<path class="st6" d="M292.2,61.8c-1.1,0-1.1-0.8-1.1-2.1s0.1-2,1.1-2s1.1,0.8,1.1,2S293.3,61.8,292.2,61.8 M292.2,57
	c-1.6,0-2,1-2,2.8s0.4,2.8,2,2.8s2-1,2-2.8S293.8,57,292.2,57"/>
<path class="st6" d="M289.1,51.7c0.9,0.3,1.2,0.4,1.2,1s-0.4,0.9-1.2,0.9c-0.5,0-0.9-0.1-1.4-0.1l-0.1,0.7c0.5,0.1,1,0.1,1.5,0.2
	c1.2,0,2-0.5,2-1.6s-0.8-1.3-1.5-1.6s-1.3-0.4-1.3-1s0.5-0.7,1.1-0.7c0.4,0,0.9,0.1,1.3,0.1l0.1-0.7c-0.5-0.1-0.9-0.2-1.4-0.2
	c-1.1,0-1.9,0.5-1.9,1.5S288.2,51.4,289.1,51.7"/>
<rect x="286" y="48.8" class="st6" width="0.8" height="5.4"/>
<path class="st6" d="M287.4,57.7c0.9,0,1.1,0.7,1.1,1.8c-0.3,0.1-0.7,0.2-1.1,0.2c-0.8,0-1-0.4-1-1S286.8,57.7,287.4,57.7
	 M287.3,60.4c0.4,0,0.9-0.1,1.3-0.3c0,1.1-0.3,1.7-1.4,1.7c-0.4,0-0.7-0.1-1.1-0.1l-0.1,0.7c0.4,0.1,0.8,0.2,1.3,0.2
	c1.7,0,2.1-1.2,2.1-2.9s-0.5-2.7-1.9-2.7c-0.9-0.1-1.7,0.5-1.8,1.4c0,0.1,0,0.2,0,0.3c-0.1,0.8,0.5,1.5,1.3,1.6
	C287.1,60.4,287.2,60.4,287.3,60.4"/>
<path class="st6" d="M287.5,65.7c0.8,0,1.1,0.5,1.1,1.5s-0.3,1.5-1.1,1.5s-1.1-0.5-1.1-1.5S286.7,65.7,287.5,65.7 M286.5,69
	c0.5,0.3,1.2,0.5,2,1l0.2-0.5c-0.4-0.2-0.7-0.3-1.1-0.4l0,0c0.4,0,0.8-0.1,1.1-0.4c0.3-0.4,0.5-1,0.4-1.5c0-1.3-0.5-2-1.7-2
	s-1.7,0.7-1.7,2C285.7,67.8,286,68.5,286.5,69"/>
<path class="st6" d="M288.8,71.9l-0.9,2.6l0,0l-0.9-2.6h-0.8c-0.1,1.3-0.1,2.6-0.2,3.9h0.6c0-1,0.1-2.1,0.1-3.1l0,0l0.9,2.4h0.6
	l0.9-2.4l0,0c0,1,0.1,2.1,0.1,3.1h0.6c0-1.3-0.1-2.6-0.2-3.9H288.8z"/>
<path class="st6" d="M291.6,68.9v0.2h0.4v-2.8h-0.5v2.2c-0.2,0.1-0.4,0.2-0.6,0.2c-0.3,0-0.5-0.2-0.5-0.5v-1.8h-0.5v1.9
	c-0.1,0.5,0.3,0.9,0.7,0.9c0.1,0,0.1,0,0.2,0C291,69.2,291.3,69.1,291.6,68.9"/>
<path class="st6" d="M292,75.2c-0.2,0.1-0.4,0.2-0.6,0.2c-0.2,0-0.4-0.1-0.5-0.4c0,0,0-0.1,0-0.1c0-0.3,0.2-0.4,0.6-0.4h0.5V75.2z
	 M291.5,73c-0.3,0-0.6,0-0.9,0.1l0.1,0.5c0.3-0.1,0.5-0.1,0.8-0.1c0.4,0,0.6,0.1,0.6,0.5v0.2h-0.6c-0.6,0-1.1,0.3-1.1,0.9
	c0,0.5,0.3,0.9,0.8,0.9c0,0,0.1,0,0.1,0c0.3,0,0.6-0.1,0.8-0.3l0.1,0.2h0.4v-2C292.5,73.2,292.1,73,291.5,73"/>
<path class="st6" d="M293.2,68.3c0-0.3,0.3-0.4,0.6-0.4h0.5v0.7c-0.2,0.1-0.4,0.2-0.6,0.2C293.4,68.7,293.2,68.6,293.2,68.3
	 M294.4,68.9l0.1,0.2h0.4v-2c0-0.7-0.5-0.9-1.1-0.9c-0.3,0-0.6,0-0.9,0.1l0.1,0.5c0.3-0.1,0.5-0.1,0.8-0.1c0.4,0,0.6,0.1,0.6,0.5
	v0.2h-0.6c-0.6,0-1.1,0.3-1.1,0.9c0,0.5,0.3,0.9,0.8,0.9c0,0,0.1,0,0.1,0C293.9,69.2,294.2,69.1,294.4,68.9"/>
<path class="st6" d="M294.6,73c-0.3,0-0.7,0.1-0.9,0.3l0-0.2h-0.4v2.7h0.5v-2.2c0.2-0.1,0.4-0.2,0.7-0.2c0.3,0,0.5,0.2,0.5,0.5v1.8
	h0.5v-1.9c0.1-0.5-0.3-0.9-0.7-0.9C294.8,73,294.7,73,294.6,73"/>
<rect x="295.6" y="65.3" class="st6" width="0.5" height="3.9"/>
<path class="st6" d="M297.8,75.2c-0.2,0.1-0.4,0.2-0.6,0.2c-0.2,0-0.5-0.1-0.5-0.4c0,0,0-0.1,0-0.1c0-0.3,0.3-0.4,0.6-0.4h0.5V75.2z
	 M297.2,73c-0.3,0-0.6,0-0.9,0.1l0.1,0.5c0.3-0.1,0.5-0.1,0.8-0.1c0.4,0,0.6,0.1,0.6,0.5v0.2h-0.6c-0.6,0-1.1,0.3-1.1,0.9
	c0,0.5,0.3,0.9,0.8,0.9c0,0,0.1,0,0.1,0c0.3,0,0.6-0.1,0.8-0.3l0.1,0.2h0.4v-2C298.3,73.2,297.8,73,297.2,73"/>
<path class="st6" d="M299.7,69l-0.2-0.4c-0.1,0.1-0.2,0.1-0.4,0.1c-0.2,0-0.3-0.1-0.3-0.3v-1.6h0.8v-0.4h-0.8v-0.8h-0.5v0.8H298v0.4
	h0.4v1.7c0,0.5,0.2,0.7,0.7,0.7C299.3,69.2,299.5,69.1,299.7,69"/>
<path class="st6" d="M300.7,73.5v1.8c-0.2,0.1-0.4,0.1-0.6,0.1c-0.5,0-0.6-0.3-0.6-0.9s0.1-1,0.6-1
	C300.3,73.4,300.5,73.4,300.7,73.5 M298.9,74.4c0,0.9,0.3,1.4,1,1.4c0.2,0,0.5-0.1,0.7-0.2V76c0,0.4-0.3,0.5-0.6,0.5
	c-0.3,0-0.5,0-0.8-0.1l-0.1,0.5c0.3,0.1,0.6,0.1,0.9,0.1c0.7,0,1.1-0.2,1.1-0.9v-2.9c-0.4-0.1-0.8-0.2-1.1-0.2
	C299.3,73,298.9,73.4,298.9,74.4"/>
<path class="st6" d="M302,66.4c-0.2,0.8-0.4,1.7-0.6,2.3l0,0c-0.3-0.8-0.5-1.6-0.6-2.3H300c0.2,0.9,0.5,1.9,0.9,2.8h0.3
	c-0.1,0.3-0.2,0.7-0.4,1.1h0.5c0.5-1.3,0.9-2.6,1.2-3.9L302,66.4z"/>
<path class="st6" d="M302.4,74.2c0-0.4,0.2-0.7,0.6-0.7s0.5,0.3,0.5,0.7H302.4z M304,74.2c0-0.8-0.4-1.3-1.1-1.3s-1.1,0.6-1.1,1.4
	s0.5,1.4,1.2,1.4c0.3,0,0.7-0.1,1-0.2l-0.2-0.4c-0.2,0.1-0.5,0.2-0.8,0.2c-0.5,0-0.7-0.3-0.7-0.8h1.6C304,74.5,304,74.4,304,74.2"/>
<path class="st6" d="M307.6,73c-0.3,0-0.6,0.1-0.9,0.3c-0.2-0.2-0.4-0.3-0.7-0.3c-0.3,0-0.6,0.1-0.8,0.3v-0.2h-0.4v2.7h0.5v-2.2
	c0.2-0.1,0.4-0.2,0.6-0.2c0.3,0,0.5,0.2,0.5,0.5v1.8h0.5v-1.9c0-0.1,0-0.2,0-0.3c0.2-0.1,0.4-0.2,0.6-0.2c0.3,0,0.5,0.2,0.5,0.5v1.8
	h0.5v-1.9c0.1-0.5-0.2-0.9-0.7-1c-0.1,0-0.2,0-0.2,0"/>
<path class="st6" d="M309.6,74.2c0-0.4,0.2-0.7,0.6-0.7s0.5,0.3,0.6,0.7H309.6z M311.3,74.2c0-0.8-0.4-1.3-1.1-1.3s-1.1,0.6-1.1,1.4
	s0.5,1.4,1.2,1.4c0.3,0,0.7-0.1,1-0.2l-0.2-0.4c-0.2,0.1-0.5,0.2-0.8,0.2c-0.5,0-0.7-0.3-0.7-0.8h1.6
	C311.3,74.5,311.3,74.4,311.3,74.2"/>
<path class="st6" d="M313.3,73c-0.3,0-0.6,0.1-0.9,0.3v-0.2H312v2.7h0.5v-2.2c0.2-0.1,0.4-0.2,0.7-0.2c0.3,0,0.5,0.2,0.5,0.5v1.8
	h0.5v-1.9c0.1-0.5-0.3-0.9-0.7-0.9C313.4,73,313.4,73,313.3,73"/>
<path class="st6" d="M316.2,75.3c-0.1,0.1-0.2,0.1-0.4,0.1c-0.2,0-0.3-0.1-0.3-0.3v-1.6h0.7V73h-0.7v-0.8h-0.5V73h-0.4v0.4h0.4v1.7
	c0,0.5,0.2,0.7,0.7,0.7c0.2,0,0.5-0.1,0.7-0.2L316.2,75.3z"/>
<path class="st6" d="M313.9,41.6h-52.7c-2.1-0.1-4.3,0.1-6.4,0.4c-12.8,2.6-21.1,15.1-18.5,27.9c1.7,8.5,8,15.4,16.3,18h0.2l0.6,0.2
	c2.7,0.6,5.5,0.9,8.2,0.7h52.3c13.1,0,23.6-10.6,23.6-23.6S326.9,41.6,313.9,41.6 M313.9,86.7h-44.4c11.9-5.5,17.1-19.6,11.6-31.4
	c-2.4-5.1-6.5-9.3-11.7-11.6h44.5c11.9-0.3,21.7,9.2,22,21.1c0.3,11.9-9.2,21.7-21.1,22C314.5,86.7,314.2,86.7,313.9,86.7
	 M281.1,65.2c0,11.9-9.6,21.6-21.5,21.6c-11.9,0-21.6-9.6-21.6-21.5s9.6-21.6,21.5-21.6c0,0,0,0,0,0
	C271.4,43.7,281.1,53.3,281.1,65.2"/>
<path class="st6" d="M266.1,54.6c0.4,0,0.8-0.3,0.8-0.8c0-0.4-0.4-0.7-0.9-0.7c-0.4,0-0.6,0.3-0.7,0.7
	C265.4,54.2,265.7,54.6,266.1,54.6"/>
<path class="st6" d="M263.3,49.2v4c-0.1,0.7,0.4,1.3,1,1.4c0.1,0,0.2,0,0.4,0c0.1,0,0.2,0,0.2,0v-1c-0.3,0-0.4-0.1-0.4-0.4v-4
	L263.3,49.2z"/>
<path class="st6" d="M263.9,48.4c0.4,0,0.8-0.3,0.8-0.8c0-0.4-0.3-0.8-0.8-0.8c-0.4,0-0.8,0.3-0.8,0.8c0,0,0,0,0,0
	C263.1,48,263.5,48.4,263.9,48.4L263.9,48.4"/>
<path class="st6" d="M260.8,52.3c0.7,0.1,0.9,0.3,0.9,0.7s-0.4,0.7-1.2,0.7c-0.5,0-1.1-0.1-1.6-0.3v1c0.6,0.2,1.1,0.3,1.7,0.3
	c1.7,0,2.2-0.8,2.2-1.7s-0.4-1.4-2-1.6c-0.7-0.1-0.9-0.2-0.9-0.6s0.4-0.7,1-0.7c0.5,0,1.1,0.1,1.6,0.3v-1c-0.5-0.2-1.1-0.3-1.6-0.3
	c-1.5,0-2.1,0.8-2.1,1.7S259.2,52.1,260.8,52.3"/>
<path class="st6" d="M259.6,84.4c0,0,11.7-19.8,11.8-20h-23.6C247.8,64.6,259.6,84.4,259.6,84.4"/>
<path class="st6" d="M265.1,56.2c-2.2,0-4.2,1.1-5.5,2.9c-1.2-1.8-3.3-2.9-5.4-2.9c-3.5,0-6.5,2.7-6.7,6.2h24.1
	C271.5,58.9,268.6,56.2,265.1,56.2"/>
<path class="st6" d="M254.7,54c0.5,0.4,1.1,0.6,1.7,0.5c1.5,0,2.1-1,2.1-2.8s-0.6-2.8-2.1-2.8c-0.5,0-1,0.1-1.4,0.4v-2.9h-1.2v7.9
	h0.7L254.7,54z M255,50.4c0.3-0.2,0.7-0.3,1.1-0.3c1,0,1.2,0.8,1.2,1.8s-0.2,1.8-1.2,1.8c-0.4,0-0.8-0.1-1.1-0.3V50.4z"/>
<path class="st6" d="M304.3,62.6V62c1.5-1.3,2.5-2.3,2.5-3.2c0-0.7-0.5-0.9-1-0.9c-0.5,0-0.9,0.1-1.3,0.3l-0.2-0.6
	c0.5-0.2,1.1-0.4,1.6-0.4c1.1,0,1.8,0.5,1.8,1.6s-1.2,2.1-2.3,3.1h2.4v0.7L304.3,62.6z"/>
<path class="st6" d="M316.1,61.8c0.4,0.1,0.9,0.1,1.3,0.1c0.4,0,0.8-0.1,1.1-0.3c0.2-0.2,0.3-0.5,0.2-0.8c0-0.8-0.4-1-1.1-1h-1.5
	l0.1-2.5h3v0.7h-2.3v1.2h0.8c1.1,0,1.8,0.5,1.8,1.7c0,0.5-0.2,1-0.5,1.4c-0.4,0.3-0.9,0.5-1.5,0.4c-0.5,0-1-0.1-1.5-0.2L316.1,61.8z
	"/>
<polygon class="st6" points="313.8,62.6 313.8,58.1 312.7,58.5 312.5,58 313.9,57.3 314.6,57.3 314.6,62.6 "/>
<path class="st6" d="M308.4,59.9c0-1.8,0.4-2.7,1.9-2.7s1.9,1,1.9,2.7s-0.4,2.7-1.9,2.7S308.4,61.6,308.4,59.9 M311.4,59.9
	c0-1.2-0.1-2-1.1-2s-1.1,0.8-1.1,2s0.1,2,1.1,2S311.4,61.1,311.4,59.9"/>
<path class="st6" d="M303,58.8c0.2,0,0.4,0.2,0.4,0.4c0,0,0,0,0,0c0,0.2-0.3,0.4-0.5,0.4c-0.2,0-0.3-0.2-0.4-0.4
	C302.6,59,302.8,58.8,303,58.8C303,58.8,303,58.8,303,58.8 M303,61.8c0.2,0,0.4,0.2,0.4,0.4c0,0.2-0.2,0.4-0.4,0.4
	c-0.2,0-0.4-0.2-0.4-0.4c0,0,0,0,0,0C302.6,62,302.8,61.8,303,61.8"/>
<rect x="225.9" y="0" class="st6" width="0.6" height="114"/>
</svg>
