<svg xmlns="http://www.w3.org/2000/svg" width="63.013" height="68.434" viewBox="0 0 63.013 68.434">
  <g id="passport" transform="translate(-18.584 0)">
    <g id="Groupe_16006" data-name="Groupe 16006" transform="translate(26.891 38.821)">
      <g id="Groupe_16005" data-name="Groupe 16005">
        <path id="Tracé_10612" data-name="Tracé 10612" d="M80.591,266.152H75.537a11.647,11.647,0,0,0,7.049,5.88A23.144,23.144,0,0,1,80.591,266.152Z" transform="translate(-75.537 -266.152)" fill="#fff"/>
      </g>
    </g>
    <g id="Groupe_16008" data-name="Groupe 16008" transform="translate(34.329 38.821)">
      <g id="Groupe_16007" data-name="Groupe 16007" transform="translate(0)">
        <path id="Tracé_10613" data-name="Tracé 10613" d="M126.529,266.152a19.535,19.535,0,0,0,2.586,6.384c.116,0,.223.034.34.034s.224-.031.339-.034a19.487,19.487,0,0,0,2.586-6.384Z" transform="translate(-126.529 -266.152)" fill="#fff"/>
      </g>
    </g>
    <g id="Groupe_16010" data-name="Groupe 16010" transform="translate(42.921 30.653)">
      <g id="Groupe_16009" data-name="Groupe 16009" transform="translate(0)">
        <path id="Tracé_10614" data-name="Tracé 10614" d="M191.02,210.152h-5.585a27.577,27.577,0,0,1,.165,2.917,27.235,27.235,0,0,1-.168,2.917h5.588a10.479,10.479,0,0,0,0-5.835Z" transform="translate(-185.432 -210.152)" fill="#fff"/>
      </g>
    </g>
    <g id="Groupe_16012" data-name="Groupe 16012" transform="translate(40.565 22.438)">
      <g id="Groupe_16011" data-name="Groupe 16011" transform="translate(0)">
        <path id="Tracé_10615" data-name="Tracé 10615" d="M169.28,153.831a22.659,22.659,0,0,1,2.006,5.881h5.047A11.648,11.648,0,0,0,169.28,153.831Z" transform="translate(-169.28 -153.831)" fill="#fff"/>
      </g>
    </g>
    <g id="Groupe_16014" data-name="Groupe 16014" transform="translate(34.327 21.901)">
      <g id="Groupe_16013" data-name="Groupe 16013" transform="translate(0)">
        <path id="Tracé_10616" data-name="Tracé 10616" d="M129.782,150.187c-.117,0-.226-.035-.343-.035s-.224.031-.34.034a19.36,19.36,0,0,0-2.588,6.384h5.857A19.4,19.4,0,0,0,129.782,150.187Z" transform="translate(-126.511 -150.152)" fill="#fff"/>
      </g>
    </g>
    <g id="Groupe_16016" data-name="Groupe 16016" transform="translate(33.754 30.653)">
      <g id="Groupe_16015" data-name="Groupe 16015">
        <path id="Tracé_10617" data-name="Tracé 10617" d="M129.4,210.152h-6.635a24.94,24.94,0,0,0-.184,2.917,24.683,24.683,0,0,0,.186,2.917h6.63a24.843,24.843,0,0,0,.185-2.917A25.136,25.136,0,0,0,129.4,210.152Z" transform="translate(-122.585 -210.152)" fill="#fff"/>
      </g>
    </g>
    <g id="Groupe_16018" data-name="Groupe 16018" transform="translate(26.891 22.438)">
      <g id="Groupe_16017" data-name="Groupe 16017">
        <path id="Tracé_10618" data-name="Tracé 10618" d="M75.538,159.712h5.048a22.737,22.737,0,0,1,2-5.881A11.649,11.649,0,0,0,75.538,159.712Z" transform="translate(-75.538 -153.831)" fill="#fff"/>
      </g>
    </g>
    <g id="Groupe_16020" data-name="Groupe 16020" transform="translate(25.585 30.653)">
      <g id="Groupe_16019" data-name="Groupe 16019" transform="translate(0)">
        <path id="Tracé_10619" data-name="Tracé 10619" d="M72.419,213.069a27.534,27.534,0,0,1,.165-2.917H67a10.479,10.479,0,0,0,0,5.835h5.589A27.049,27.049,0,0,1,72.419,213.069Z" transform="translate(-66.584 -210.152)" fill="#fff"/>
      </g>
    </g>
    <g id="Groupe_16022" data-name="Groupe 16022" transform="translate(40.569 38.821)">
      <g id="Groupe_16021" data-name="Groupe 16021" transform="translate(0)">
        <path id="Tracé_10620" data-name="Tracé 10620" d="M171.306,266.151a23.069,23.069,0,0,1-1.995,5.88,11.649,11.649,0,0,0,7.048-5.88Z" transform="translate(-169.311 -266.151)" fill="#fff"/>
      </g>
    </g>
    <g id="Groupe_16024" data-name="Groupe 16024" transform="translate(42.928 0)">
      <g id="Groupe_16023" data-name="Groupe 16023" transform="translate(0 0)">
        <path id="Tracé_10621" data-name="Tracé 10621" d="M220.691,7.408,193.639.16a4.668,4.668,0,0,0-5.717,3.3l-2.44,9.106h10.663a4.636,4.636,0,0,1,3.569,1.693l4.072,1.091,7.683-7.163,2.151.576-4.815,7.932,3.8,1.018L215.526,16l1.434.384L214.7,19.81l.246,4.1-1.434-.384-1.67-2.945-3.8-1.018.2,9.277-2.151-.576-3.072-10.045-2.2-.591V45.7l2.4-9.144,2.254.6-4.658,17.721v4.365a4.668,4.668,0,0,1-4.668,4.668h-8.051l16.287,4.364a4.668,4.668,0,0,0,5.717-3.3l7.555-28.193-2.26-.589L216,33.938l2.258.588,5.734-21.4A4.668,4.668,0,0,0,220.691,7.408ZM204.12,33.17l-2.254-.6.606-2.254,2.254.6Zm2.858-1.649,2.256.6-.6,2.254-2.256-.6ZM205.59,63.765l-2.254-.6,6.644-24.8,2.254.6Zm7.549-28.178-2.254-.6.606-2.254,2.254.6Z" transform="translate(-185.483 0)" fill="#fff"/>
      </g>
    </g>
    <g id="Groupe_16026" data-name="Groupe 16026" transform="translate(18.584 14.9)">
      <g id="Groupe_16025" data-name="Groupe 16025" transform="translate(0)">
        <path id="Tracé_10622" data-name="Tracé 10622" d="M53.591,102.152H18.584v46.676H53.591a2.336,2.336,0,0,0,2.334-2.334V104.486A2.336,2.336,0,0,0,53.591,102.152ZM48.923,144.16H25.585v-2.334H48.923Zm-11.669-9.335a14,14,0,1,1,14-14A14,14,0,0,1,37.254,134.825Z" transform="translate(-18.584 -102.152)" fill="#fff"/>
      </g>
    </g>
  </g>
</svg>
