<svg xmlns="http://www.w3.org/2000/svg" width="88.389" height="75.132" viewBox="0 0 88.389 75.132">
  <g id="Groupe_16043" data-name="Groupe 16043" transform="translate(-1311.584 -483.348)">
    <g id="passport_1_" data-name="passport (1)" transform="translate(1337.082 496.851)">
      <g id="Groupe_16004" data-name="Groupe 16004" transform="translate(0 0)">
        <g id="Groupe_16003" data-name="Groupe 16003" transform="translate(0 0)">
          <path id="Tracé_10605" data-name="Tracé 10605" d="M227.342,263.878c1.128,0,2.715-3.05,2.914-7.877h-5.829C224.627,260.827,226.213,263.878,227.342,263.878Z" transform="translate(-209.618 -232.37)" fill="#fff"/>
          <path id="Tracé_10606" data-name="Tracé 10606" d="M161.078,163.557h3.859a18.306,18.306,0,0,1,1.625-7.232A8.842,8.842,0,0,0,161.078,163.557Z" transform="translate(-152.117 -141.895)" fill="#fff"/>
          <path id="Tracé_10607" data-name="Tracé 10607" d="M291.516,156.325a18.307,18.307,0,0,1,1.625,7.232H297A8.843,8.843,0,0,0,291.516,156.325Z" transform="translate(-270.514 -141.895)" fill="#fff"/>
          <path id="Tracé_10608" data-name="Tracé 10608" d="M227.342,149.334c-1.128,0-2.715,3.051-2.915,7.877h5.829C230.056,152.385,228.47,149.334,227.342,149.334Z" transform="translate(-209.618 -135.549)" fill="#fff"/>
          <path id="Tracé_10609" data-name="Tracé 10609" d="M161.078,256a8.842,8.842,0,0,0,5.484,7.232A18.307,18.307,0,0,1,164.937,256Z" transform="translate(-152.117 -232.37)" fill="#fff"/>
          <path id="Tracé_10610" data-name="Tracé 10610" d="M95.508,5.908H93.539V3.871A3.872,3.872,0,0,0,88.72.122L67.714,5.931A3.932,3.932,0,0,0,64,9.847V43.324a3.942,3.942,0,0,0,3.939,3.938h27.57a3.942,3.942,0,0,0,3.938-3.938V9.847A3.942,3.942,0,0,0,95.508,5.908ZM89.226,2.025a1.923,1.923,0,0,1,2.343,1.846V5.908H75.185Zm-2.58,39.33H75.816a.985.985,0,0,1,0-1.969H86.646a.985.985,0,0,1,0,1.969Zm3.938-3.938H71.877a.985.985,0,1,1,0-1.969H90.585a.985.985,0,1,1,0,1.969Zm-8.862-3.939A10.831,10.831,0,1,1,92.554,22.647,10.843,10.843,0,0,1,81.723,33.478Z" transform="translate(-64 -0.001)" fill="#fff"/>
          <path id="Tracé_10611" data-name="Tracé 10611" d="M291.516,263.233A8.842,8.842,0,0,0,297,256H293.14A18.307,18.307,0,0,1,291.516,263.233Z" transform="translate(-270.514 -232.37)" fill="#fff"/>
        </g>
      </g>
    </g>
    <g id="renewable" transform="translate(1311.584 483.348)">
      <g id="Groupe_16028" data-name="Groupe 16028" transform="translate(0 0)">
        <g id="Groupe_16027" data-name="Groupe 16027">
          <path id="Tracé_10623" data-name="Tracé 10623" d="M44.2,38.4A35.356,35.356,0,0,0,8.839,73.752c0,.461.038.91.069,1.364L3.773,69.981A2.209,2.209,0,0,0,.648,73.105l8.839,8.839a2.21,2.21,0,0,0,3.125,0l8.839-8.839a2.209,2.209,0,0,0-3.125-3.125l-4.984,4.984c-.021-.407-.084-.8-.084-1.212a30.917,30.917,0,0,1,60.8-7.94,6.2,6.2,0,0,1,4.359-.793A35.339,35.339,0,0,0,44.2,38.4Z" transform="translate(-0.001 -38.396)" fill="#fff"/>
        </g>
      </g>
      <g id="Groupe_16030" data-name="Groupe 16030" transform="translate(9.969 30.937)">
        <g id="Groupe_16029" data-name="Groupe 16029">
          <path id="Tracé_10624" data-name="Tracé 10624" d="M135.522,227.082l-8.839-8.839a2.212,2.212,0,0,0-3.126,0l-8.839,8.839a2.209,2.209,0,1,0,3.125,3.125l4.984-4.984c.021.407.084.8.084,1.212a30.917,30.917,0,0,1-60.8,7.94,6.2,6.2,0,0,1-4.359.793,35.336,35.336,0,0,0,69.581-8.733c0-.461-.038-.91-.069-1.364l5.135,5.135a2.21,2.21,0,0,0,3.126-3.125Z" transform="translate(-57.749 -217.596)" fill="#fff"/>
        </g>
      </g>
    </g>
  </g>
</svg>
