<?xml version="1.0" encoding="utf-8"?>
<!-- Generator: Adobe Illustrator 22.1.0, SVG Export Plug-In . SVG Version: 6.00 Build 0)  -->
<svg version="1.1" id="Calque_1" xmlns="http://www.w3.org/2000/svg" xmlns:xlink="http://www.w3.org/1999/xlink" x="0px" y="0px"
	 viewBox="0 0 15.6 20.4" style="enable-background:new 0 0 15.6 20.4;" xml:space="preserve">
<style type="text/css">
	.st0{fill:#B8BAD0;}
	.st1{fill:#A1A4C1;}
	.st2{fill:#EF7E30;}
	.st3{fill:#FFFFFF;}
</style>
<title>Plan de travail 4</title>
<path class="st0" d="M11.1,0.1H0.6c-0.3,0-0.5,0.2-0.5,0.7v19.1c0.1,0.2,0.3,0.4,0.5,0.4H15c0.2,0,0.4-0.1,0.5-0.4V4.8
	c0-0.2,0-0.3-0.1-0.4l-4.2-4.2C11.2,0.1,11.1,0.1,11.1,0.1z"/>
<path class="st1" d="M11.2,0.1v4.3h4.3L11.2,0.1z"/>
<path class="st2" d="M4.8,12.1L4.8,12.1c-0.1,0-0.2,0-0.3-0.1C4.1,11.8,4,11.5,4,11.2c0.1-0.6,0.8-1.2,2.2-1.8
	c0.6-1.3,1-2.6,1.4-3.9C7.1,4.8,6.9,3.9,7.1,3.1c0.1-0.2,0.2-0.4,0.4-0.4c0.1,0,0.2-0.1,0.4-0.1C8,2.6,8.2,2.8,8.3,3
	s0.4,0.4-0.1,2.4c0.5,1,1.1,1.9,1.8,2.7C10.4,8.1,10.8,8,11.2,8c0.6,0,0.9,0.1,1,0.4c0.1,0.3,0.1,0.6-0.1,0.8
	c-0.2,0.3-0.5,0.4-0.8,0.4c-0.6-0.1-1.1-0.4-1.5-0.8C8.7,9,7.6,9.3,6.6,9.8c-0.2,0.5-0.5,1-0.9,1.5C5.4,11.9,5.1,12.1,4.8,12.1z
	 M5.8,10.2c-0.8,0.4-1.1,0.8-1.1,1c0,0,0,0.1,0.2,0.2C4.9,11.5,5.2,11.3,5.8,10.2L5.8,10.2z M10.7,8.6C11,8.9,11,9,11.2,9
	c0.2,0,0.3,0,0.4-0.2c0,0,0.1-0.1,0.1-0.1c0,0-0.1-0.1-0.4-0.1S10.9,8.6,10.7,8.6L10.7,8.6z M7.9,6.3C7.7,7.2,7.4,8.1,7,9
	c0.8-0.3,1.5-0.5,2.3-0.7C8.8,7.6,8.4,7,7.9,6.3L7.9,6.3z M7.7,3.3c-0.3,0.3-0.3,0.8,0,1.2C8.1,3.7,7.7,3.3,7.7,3.3z"/>
<path class="st2" d="M15,20.3H0.6c-0.3,0-0.5-0.2-0.5-0.5l0,0l0,0v-5.6h15.5v5.6C15.6,20,15.3,20.3,15,20.3C15,20.3,15,20.3,15,20.3
	z"/>
<path class="st3" d="M4,19.2H3.4v-3.6h1c0.2,0,0.3,0,0.5,0.1c0.1,0,0.3,0.1,0.4,0.2c0.1,0.1,0.2,0.2,0.3,0.4
	c0.1,0.1,0.1,0.3,0.1,0.5c0,0.2,0,0.3-0.1,0.5c-0.1,0.1-0.1,0.3-0.3,0.4c-0.1,0.1-0.3,0.2-0.4,0.2c-0.2,0.1-0.3,0.1-0.5,0.1H4V19.2
	L4,19.2z M4,16v1.4h0.5c0.1,0,0.1,0,0.2,0c0.1,0,0.1-0.1,0.2-0.1C5,17.2,5.1,17.1,5.1,17c0.1-0.2,0.1-0.4,0-0.6
	c0-0.1-0.1-0.2-0.1-0.2c-0.1-0.1-0.1-0.1-0.2-0.2c-0.1,0-0.2,0-0.3,0H4z"/>
<path class="st3" d="M9.3,17.3c0,0.3,0,0.5-0.1,0.8c-0.1,0.2-0.1,0.4-0.2,0.5c-0.1,0.1-0.2,0.2-0.3,0.3C8.5,19,8.4,19,8.3,19.1
	c-0.1,0-0.2,0.1-0.3,0.1H7.8H6.4v-3.6h1.1c0.3,0,0.5,0,0.8,0.1c0.2,0.1,0.4,0.2,0.6,0.4c0.2,0.2,0.3,0.3,0.4,0.5
	C9.3,16.8,9.3,17,9.3,17.3z M7.6,18.7c0.3,0,0.7-0.1,0.9-0.4c0.2-0.3,0.3-0.7,0.3-1.1c0-0.1,0-0.3-0.1-0.4c0-0.1-0.1-0.3-0.2-0.4
	c-0.1-0.1-0.3-0.2-0.4-0.3C7.8,16,7.6,16,7.3,16H7v2.8L7.6,18.7z"/>
<path class="st3" d="M10.8,16v1.1h1.5v0.4h-1.5v1.6h-0.6v-3.6h2.3V16H10.8z"/>
</svg>
