<svg id="Calque_1" data-name="Calque 1" xmlns="http://www.w3.org/2000/svg" xmlns:xlink="http://www.w3.org/1999/xlink" viewBox="0 0 222.03 88.34"><defs><style>.cls-1{fill:#fff;}.cls-2{opacity:0.55;}.cls-3{fill:url(#Dégradé_sans_nom_12);}.cls-4{fill:url(#Dégradé_sans_nom_12-2);}.cls-5{fill:url(#Dégradé_sans_nom_12-3);}.cls-6{opacity:0.63;}.cls-7{fill:url(#Dégradé_sans_nom_12-4);}.cls-8{fill:url(#Dégradé_sans_nom_11);}.cls-9{fill:url(#Dégradé_sans_nom_11-3);}.cls-10{fill:url(#Dégradé_sans_nom_11-4);}.cls-11{fill:url(#Dégradé_sans_nom_11-5);}</style><linearGradient id="Dégradé_sans_nom_12" x1="-88.11" y1="13.75" x2="-78.08" y2="13.75" gradientTransform="matrix(0.94, 0.34, -0.34, 0.96, 123.8, 40.4)" gradientUnits="userSpaceOnUse"><stop offset="0" stop-color="#fff"/><stop offset="1" stop-color="#ea6514"/></linearGradient><linearGradient id="Dégradé_sans_nom_12-2" x1="-70.18" y1="-6.42" x2="-63.98" y2="-6.42" gradientTransform="matrix(1.01, 0.36, -0.34, 0.96, 125.58, 40.66)" xlink:href="#Dégradé_sans_nom_12"/><linearGradient id="Dégradé_sans_nom_12-3" x1="-29.24" y1="-22.21" x2="-26.5" y2="-22.21" gradientTransform="matrix(1.04, 0.25, -0.24, 0.99, 100.21, 31.5)" xlink:href="#Dégradé_sans_nom_12"/><linearGradient id="Dégradé_sans_nom_12-4" x1="-101.56" y1="41.48" x2="-84.02" y2="41.48" gradientTransform="matrix(0.95, 0.34, -0.34, 0.94, 122.77, 45.99)" xlink:href="#Dégradé_sans_nom_12"/><linearGradient id="Dégradé_sans_nom_11" x1="1.9" y1="62.44" x2="35.88" y2="62.44" gradientUnits="userSpaceOnUse"><stop offset="0" stop-color="#ea6514"/><stop offset="1" stop-color="#fff"/></linearGradient><linearGradient id="Dégradé_sans_nom_11-3" x1="29.72" y1="30.86" x2="50.27" y2="30.86" xlink:href="#Dégradé_sans_nom_11"/><linearGradient id="Dégradé_sans_nom_11-4" x1="53.16" y1="12.97" x2="65.85" y2="12.97" xlink:href="#Dégradé_sans_nom_11"/><linearGradient id="Dégradé_sans_nom_11-5" x1="73.38" y1="3.97" x2="79.05" y2="3.97" xlink:href="#Dégradé_sans_nom_11"/></defs><title>Plan de travail 1</title><path class="cls-1" d="M163.67,58.83V48c0-.94.24-1.18,1.21-1.18h4c.71,0,1,.31,1,1V82.74c0,.78-.28,1.06-1.06,1.06H165.1c-.8,0-1.1-.31-1.12-1.15V81.6c-.11,0-.19,0-.22.06a10,10,0,0,1-6,2.6,13.4,13.4,0,0,1-11.56-4.16,13.1,13.1,0,0,1-3.36-7.33,17.25,17.25,0,0,1,1.05-9c1.8-4.41,5.22-6.74,9.8-7.45a12.15,12.15,0,0,1,8.68,1.59C162.75,58.18,163.13,58.46,163.67,58.83ZM148.89,70.15l.16,0a12.09,12.09,0,0,0,.66,4.54,7.43,7.43,0,0,0,7.2,4.86,7.06,7.06,0,0,0,6.78-5.52,14.73,14.73,0,0,0,.35-2.37,13.69,13.69,0,0,0-1-6.61,7.26,7.26,0,0,0-7-4.15,6.77,6.77,0,0,0-6.46,5A42,42,0,0,0,148.89,70.15Z"/><path class="cls-1" d="M198,81.07l-1.07.65a18.17,18.17,0,0,1-14.08,2.06,8.67,8.67,0,0,1-4.35-2.5,7.25,7.25,0,0,1,1.3-11,14.33,14.33,0,0,1,6.41-2.3c3.39-.47,6.79-.91,10.16-1.45,1.35-.22,1.17,0,1.14-1.49a3.48,3.48,0,0,0-2.58-3.51,13.4,13.4,0,0,0-8.12-.07,4.79,4.79,0,0,0-3.05,3.39c-.39,1.08-.39,1.07-1.54.9s-2.4-.32-3.61-.47c-1-.11-1.24-.52-1-1.45a9,9,0,0,1,5.93-6.41,23.88,23.88,0,0,1,14.88-.33,6.67,6.67,0,0,1,5,5,15.68,15.68,0,0,1,.34,3.35c0,3.23,0,6.46,0,9.69a29.64,29.64,0,0,0,.24,4.21,16.76,16.76,0,0,0,1,3.13c.3.75.06,1.31-.74,1.31-1.53,0-3.08,0-4.61,0a.75.75,0,0,1-.82-.49C198.63,82.6,198.33,81.88,198,81.07Zm-.51-10a2.14,2.14,0,0,0-.26,0c-2.91.51-5.84,1-8.75,1.53a17.3,17.3,0,0,0-3.71,1,2.7,2.7,0,0,0-1.52,3.25,3.26,3.26,0,0,0,2.49,2.34,10.74,10.74,0,0,0,9.35-1.53C197.4,76.11,197.55,73.66,197.49,71.11Z"/><path class="cls-1" d="M115.6,72c.06.46.09.84.17,1.21a7.62,7.62,0,0,0,7,6.27,13.08,13.08,0,0,0,3.59-.2A6.58,6.58,0,0,0,131.21,75a1,1,0,0,1,1.31-.74c1.39.21,2.8.35,4.19.53.88.11,1.17.58.86,1.39A11.09,11.09,0,0,1,131.11,83a18.35,18.35,0,0,1-14.91-.3c-4.3-2-6.48-5.56-7-10.22a17,17,0,0,1,.45-6.63c1.53-5.38,5.28-8.35,10.63-9.38a16.34,16.34,0,0,1,10.06,1c4.64,2.12,7,5.83,7.5,10.86.09,1,.06,1.94.11,2.91,0,.56-.21.73-.77.73H115.6Zm.29-4.8h15.47a7,7,0,0,0-1.64-3.84A7.55,7.55,0,0,0,124.46,61a8.24,8.24,0,0,0-6.81,2.42A6.38,6.38,0,0,0,115.89,67.17Z"/><path class="cls-1" d="M63.42,65.29A2.43,2.43,0,0,1,63.3,65c-.38-2.39-1.93-3.54-4.17-3.9a12.26,12.26,0,0,0-5.29.25,5.26,5.26,0,0,0-1.94,1.09A1.6,1.6,0,0,0,52.05,65a6,6,0,0,0,1.92.89c3.41.9,6.84,1.74,10.25,2.62a13.76,13.76,0,0,1,1.9.66c5.29,2.27,5.44,8,2.43,11.28a11.12,11.12,0,0,1-6.13,3.32,21.25,21.25,0,0,1-11.16-.38,9.67,9.67,0,0,1-6.75-7.34c-.17-.7.08-1.16.74-1.26,1.7-.23,3.39-.43,5.15-.65a3.43,3.43,0,0,1,.16.56,5.25,5.25,0,0,0,4.37,4.5,11.85,11.85,0,0,0,6-.07,6.25,6.25,0,0,0,2.34-1.32,2.12,2.12,0,0,0-.8-3.79c-1.79-.6-3.64-1-5.46-1.45-2.25-.6-4.48-1.17-6.69-1.84A7.41,7.41,0,0,1,47,68.63c-2.74-3-2.2-7.48,1.23-10.09a12.08,12.08,0,0,1,5.64-2.15,20.26,20.26,0,0,1,10.54,1.09,7.72,7.72,0,0,1,4.88,6,.77.77,0,0,1-.59,1.05C66.94,64.85,65.18,65.05,63.42,65.29Z"/><path class="cls-1" d="M82.72,59.42a11.69,11.69,0,0,1,6.18-3,15.69,15.69,0,0,1,8.49.84,7.63,7.63,0,0,1,5.08,7.34c.14,6.06.09,12.13.12,18.2,0,.73-.35,1-1.09,1h-4c-.85,0-1.13-.26-1.13-1.12,0-5.15,0-10.32,0-15.47,0-.69-.08-1.39-.14-2.08a4.24,4.24,0,0,0-3.53-3.82,9,9,0,0,0-5.8.53,5.62,5.62,0,0,0-3.47,4.94,20,20,0,0,0-.14,2.45q0,6.67,0,13.34c0,1-.26,1.23-1.23,1.23H78c-.73,0-1.06-.32-1.06-1.06q0-12.49,0-25c0-.79.32-1.09,1.12-1.09h3.56c.75,0,1.06.31,1.06,1.07Z"/><path class="cls-1" d="M218.38,70.24q0,6.17,0,12.34c0,1-.23,1.22-1.22,1.22h-3.89c-.81,0-1.14-.3-1.14-1.08V57.78c0-.79.33-1.09,1.12-1.09h4c.83,0,1.1.28,1.1,1.14Q218.39,64,218.38,70.24Z"/><path class="cls-1" d="M215.25,53c-.72,0-1.43,0-2.14,0a.89.89,0,0,1-1-1c0-1.42,0-2.85,0-4.28a.86.86,0,0,1,.94-.92c1.47,0,2.93,0,4.4,0a.81.81,0,0,1,.89.89c0,1.46,0,2.9,0,4.36a.85.85,0,0,1-.93.92C216.72,53,216,53,215.25,53Z"/><g class="cls-2"><path class="cls-3" d="M39,30.69a5.22,5.22,0,0,1-2.91-6.76,5,5,0,1,1,9.43,3.38A5.22,5.22,0,0,1,39,30.69Zm3.5-9.83A4.88,4.88,0,0,0,36.4,24a4.71,4.71,0,1,0,8.85,3.16A4.88,4.88,0,0,0,42.52,20.86Z"/></g><g class="cls-2"><path class="cls-4" d="M58.75,13.3a3.32,3.32,0,1,1,4.26-2A3.34,3.34,0,0,1,58.75,13.3Zm2.17-6.08a3.13,3.13,0,1,0,1.89,4A3.13,3.13,0,0,0,60.92,7.22Z"/></g><g class="cls-2"><path class="cls-5" d="M76.14,3.93a1.71,1.71,0,0,1-1.09-2A1.43,1.43,0,0,1,76.8.78a1.7,1.7,0,0,1,1.09,2A1.43,1.43,0,0,1,76.14,3.93ZM76.78.87A1.34,1.34,0,0,0,75.14,2a1.59,1.59,0,0,0,1,1.86A1.35,1.35,0,0,0,77.8,2.73,1.6,1.6,0,0,0,76.78.87Z"/></g><g class="cls-6"><path class="cls-7" d="M17.12,62.14a9.23,9.23,0,0,1,6.22-17.36,9.23,9.23,0,0,1-6.22,17.36Zm6-16.86a8.69,8.69,0,0,0-5.84,16.36,8.69,8.69,0,0,0,5.84-16.36Z"/></g><path class="cls-8" d="M18.9,40.25c-9.39,0-17,9.94-17,22.19s7.61,22.19,17,22.19,17-9.94,17-22.19S28.29,40.25,18.9,40.25Zm1.45,22.19a9,9,0,0,1,0-17.93,9,9,0,0,1,0,17.93Z"/><path class="cls-8" d="M18.9,40.25c-9.39,0-17,9.94-17,22.19s7.61,22.19,17,22.19,17-9.94,17-22.19S28.29,40.25,18.9,40.25Zm1.45,22.19a9,9,0,0,1,0-17.93,9,9,0,0,1,0,17.93Z"/><path class="cls-9" d="M40,18c-5.67,0-10.27,5.77-10.27,12.87S34.32,43.73,40,43.73,50.27,38,50.27,30.86,45.66,18,40,18Zm.82,12.87a5.18,5.18,0,1,1,4.93-5.16A5.06,5.06,0,0,1,40.81,30.86Z"/><path class="cls-10" d="M59.51,5c-3.5,0-6.35,3.57-6.35,8s2.85,8,6.35,8,6.34-3.56,6.34-7.95S63,5,59.51,5ZM60,13.43a3.21,3.21,0,0,1-3.12-3.28,3.12,3.12,0,1,1,6.24,0A3.21,3.21,0,0,1,60,13.43Z"/><path class="cls-11" d="M76.21,0c-1.55,0-2.83,1.78-2.83,4s1.28,4,2.83,4,2.84-1.78,2.84-4S77.77,0,76.21,0Zm.27,4a1.52,1.52,0,0,1-1.4-1.61,1.41,1.41,0,1,1,2.79,0A1.52,1.52,0,0,1,76.48,4Z"/></svg>