<svg id="Calque_1" data-name="Calque 1" xmlns="http://www.w3.org/2000/svg" xmlns:xlink="http://www.w3.org/1999/xlink" viewBox="0 0 338.14 114.02"><defs><style>.cls-1{opacity:0.55;}.cls-2{fill:url(#Dégradé_sans_nom_12);}.cls-3{fill:url(#Dégradé_sans_nom_12-2);}.cls-4{fill:url(#Dégradé_sans_nom_12-3);}.cls-5{opacity:0.63;}.cls-6{fill:url(#Dégradé_sans_nom_12-4);}.cls-7{fill:#fff;}.cls-8{fill:url(#Dégradé_sans_nom_11);}.cls-9{fill:url(#Dégradé_sans_nom_11-3);}.cls-10{fill:url(#Dégradé_sans_nom_11-4);}.cls-11{fill:url(#Dégradé_sans_nom_11-5);}</style><linearGradient id="Dégradé_sans_nom_12" x1="-83.95" y1="44.22" x2="-73.93" y2="44.22" gradientTransform="matrix(0.94, 0.34, -0.34, 0.96, 129.19, 10.04)" gradientUnits="userSpaceOnUse"><stop offset="0" stop-color="#fff"/><stop offset="1" stop-color="#ea6514"/></linearGradient><linearGradient id="Dégradé_sans_nom_12-2" x1="-59.98" y1="24.04" x2="-53.78" y2="24.04" gradientTransform="matrix(1.01, 0.36, -0.34, 0.96, 124.57, 8.01)" xlink:href="#Dégradé_sans_nom_12"/><linearGradient id="Dégradé_sans_nom_12-3" x1="-21.59" y1="-0.69" x2="-18.85" y2="-0.69" gradientTransform="matrix(1.04, 0.25, -0.24, 0.99, 96.25, 8.54)" xlink:href="#Dégradé_sans_nom_12"/><linearGradient id="Dégradé_sans_nom_12-4" x1="-96.28" y1="72.51" x2="-78.74" y2="72.51" gradientTransform="matrix(0.95, 0.34, -0.34, 0.94, 127.04, 15.24)" xlink:href="#Dégradé_sans_nom_12"/><linearGradient id="Dégradé_sans_nom_11" x1="0.72" y1="62.79" x2="34.7" y2="62.79" gradientUnits="userSpaceOnUse"><stop offset="0" stop-color="#ea6514"/><stop offset="1" stop-color="#fff"/></linearGradient><linearGradient id="Dégradé_sans_nom_11-3" x1="28.54" y1="31.21" x2="49.09" y2="31.21" xlink:href="#Dégradé_sans_nom_11"/><linearGradient id="Dégradé_sans_nom_11-4" x1="51.98" y1="13.33" x2="64.67" y2="13.33" xlink:href="#Dégradé_sans_nom_11"/><linearGradient id="Dégradé_sans_nom_11-5" x1="72.2" y1="4.33" x2="77.87" y2="4.33" xlink:href="#Dégradé_sans_nom_11"/></defs><title>Plan de travail 1</title><g class="cls-1"><path class="cls-2" d="M37.84,31a5.22,5.22,0,0,1-2.91-6.76,5,5,0,1,1,9.43,3.39A5.22,5.22,0,0,1,37.84,31Zm3.5-9.83a4.88,4.88,0,0,0-6.12,3.18,4.71,4.71,0,1,0,8.85,3.17A4.9,4.9,0,0,0,41.34,21.21Z"/></g><g class="cls-1"><path class="cls-3" d="M57.57,13.65a3.32,3.32,0,1,1,4.26-2A3.33,3.33,0,0,1,57.57,13.65Zm2.17-6.08a3.13,3.13,0,1,0,1.89,4A3.13,3.13,0,0,0,59.74,7.57Z"/></g><g class="cls-1"><path class="cls-4" d="M75,4.28a1.69,1.69,0,0,1-1.09-2,1.43,1.43,0,0,1,1.75-1.18,1.71,1.71,0,0,1,1.09,2A1.43,1.43,0,0,1,75,4.28Zm.64-3.06A1.35,1.35,0,0,0,74,2.33a1.6,1.6,0,0,0,1,1.86,1.35,1.35,0,0,0,1.63-1.11A1.61,1.61,0,0,0,75.6,1.22Z"/></g><g class="cls-5"><path class="cls-6" d="M15.94,62.5a9.23,9.23,0,0,1,6.22-17.37A9.23,9.23,0,0,1,15.94,62.5Zm6-16.86A8.69,8.69,0,0,0,16.14,62,8.69,8.69,0,0,0,22,45.64Z"/></g><path class="cls-7" d="M162.49,59.19V48.33c0-.94.24-1.17,1.21-1.18h4c.71,0,1,.3,1,1V83.1c0,.77-.29,1.05-1.06,1.05h-3.71c-.8,0-1.1-.31-1.12-1.14V82c-.11,0-.19,0-.23.06a9.88,9.88,0,0,1-6,2.6A13.4,13.4,0,0,1,145,80.45a13.07,13.07,0,0,1-3.36-7.32,17.29,17.29,0,0,1,1.05-9c1.8-4.41,5.22-6.74,9.8-7.45a12.15,12.15,0,0,1,8.68,1.6C161.57,58.53,162,58.81,162.49,59.19ZM147.71,70.5l.16,0a12.09,12.09,0,0,0,.66,4.54,7.43,7.43,0,0,0,7.2,4.86,7,7,0,0,0,6.78-5.52,14.57,14.57,0,0,0,.35-2.37,13.69,13.69,0,0,0-1-6.61,7.25,7.25,0,0,0-7-4.14,6.76,6.76,0,0,0-6.46,5A42,42,0,0,0,147.71,70.5Z"/><path class="cls-7" d="M196.82,81.42l-1.07.66a18.21,18.21,0,0,1-14.08,2,8.67,8.67,0,0,1-4.35-2.5,7.24,7.24,0,0,1,1.3-11A14.23,14.23,0,0,1,185,68.36c3.39-.47,6.79-.91,10.16-1.45,1.34-.22,1.17,0,1.14-1.49a3.49,3.49,0,0,0-2.58-3.51,13.55,13.55,0,0,0-8.12-.07,4.79,4.79,0,0,0-3,3.39c-.39,1.09-.39,1.07-1.54.9s-2.4-.31-3.61-.47c-1-.11-1.25-.52-1-1.45a9,9,0,0,1,5.94-6.4,23.88,23.88,0,0,1,14.88-.34,6.68,6.68,0,0,1,5,5,16.2,16.2,0,0,1,.34,3.35c0,3.22,0,6.45,0,9.68a29.47,29.47,0,0,0,.24,4.21,16.76,16.76,0,0,0,1,3.13c.3.75.06,1.31-.74,1.31-1.54,0-3.08,0-4.61,0a.77.77,0,0,1-.82-.5C197.44,83,197.15,82.24,196.82,81.42Zm-.51-10h-.26c-2.91.5-5.84,1-8.75,1.52A17,17,0,0,0,183.58,74a2.69,2.69,0,0,0-1.51,3.24,3.25,3.25,0,0,0,2.48,2.34,10.75,10.75,0,0,0,9.36-1.52C196.22,76.46,196.37,74,196.31,71.46Z"/><path class="cls-7" d="M114.42,72.33c.06.45.09.84.17,1.21a7.61,7.61,0,0,0,7,6.26,13.08,13.08,0,0,0,3.59-.2A6.55,6.55,0,0,0,130,75.36a1,1,0,0,1,1.31-.74c1.39.21,2.8.35,4.19.53.88.11,1.17.58.86,1.39a11.07,11.07,0,0,1-6.46,6.81,18.35,18.35,0,0,1-14.91-.3c-4.3-2-6.48-5.56-7-10.21a17,17,0,0,1,.45-6.63c1.53-5.39,5.28-8.36,10.63-9.39a16.34,16.34,0,0,1,10.06,1c4.64,2.12,7,5.83,7.5,10.86.09,1,.06,1.94.11,2.92,0,.56-.21.72-.78.72q-10.32,0-20.66,0Zm.29-4.8h15.47a7.05,7.05,0,0,0-1.64-3.85,7.55,7.55,0,0,0-5.26-2.37,8.27,8.27,0,0,0-6.81,2.42A6.41,6.41,0,0,0,114.71,67.53Z"/><path class="cls-7" d="M62.24,65.64a2,2,0,0,1-.12-.32c-.38-2.38-1.93-3.53-4.17-3.89a12.11,12.11,0,0,0-5.29.24,5.26,5.26,0,0,0-1.94,1.09,1.61,1.61,0,0,0,.15,2.64,5.79,5.79,0,0,0,1.92.88C56.2,67.18,59.63,68,63,68.9a13.8,13.8,0,0,1,1.9.67c5.29,2.26,5.44,8,2.43,11.27a11.2,11.2,0,0,1-6.13,3.33,21.25,21.25,0,0,1-11.16-.39,9.65,9.65,0,0,1-6.75-7.34c-.17-.7.08-1.16.74-1.26,1.7-.23,3.39-.43,5.14-.65a3.14,3.14,0,0,1,.17.56,5.24,5.24,0,0,0,4.37,4.5,11.74,11.74,0,0,0,6-.07,6.25,6.25,0,0,0,2.34-1.32,2.13,2.13,0,0,0-.8-3.79c-1.79-.6-3.64-1-5.46-1.45-2.25-.6-4.48-1.16-6.69-1.84A7.41,7.41,0,0,1,45.8,69C43.06,66,43.6,61.5,47,58.89a12.08,12.08,0,0,1,5.64-2.15,20.26,20.26,0,0,1,10.54,1.09,7.72,7.72,0,0,1,4.88,6c.12.54-.1,1-.59,1C65.76,65.2,64,65.4,62.24,65.64Z"/><path class="cls-7" d="M81.54,59.78a11.61,11.61,0,0,1,6.18-3,15.59,15.59,0,0,1,8.49.83,7.64,7.64,0,0,1,5.08,7.34c.13,6.06.09,12.13.12,18.2,0,.73-.35,1-1.09,1h-4c-.85,0-1.12-.26-1.12-1.11q0-7.74,0-15.48c0-.69-.08-1.38-.14-2.07a4.24,4.24,0,0,0-3.53-3.83,9,9,0,0,0-5.8.53,5.63,5.63,0,0,0-3.47,4.94,20.17,20.17,0,0,0-.14,2.46c0,4.45,0,8.88,0,13.33,0,1-.26,1.23-1.23,1.23h-4c-.73,0-1.06-.32-1.06-1.05q0-12.5,0-25c0-.78.32-1.09,1.12-1.09h3.56c.75,0,1.06.32,1.06,1.07Z"/><path class="cls-7" d="M217.2,70.59q0,6.18,0,12.34c0,1-.23,1.22-1.22,1.22h-3.89c-.81,0-1.14-.3-1.14-1.08V58.13c0-.78.33-1.09,1.12-1.09h4c.83,0,1.1.28,1.1,1.14Q217.21,64.39,217.2,70.59Z"/><path class="cls-7" d="M214.06,53.33c-.71,0-1.42,0-2.13,0a.89.89,0,0,1-1-1c0-1.43,0-2.86,0-4.28a.87.87,0,0,1,.94-.93h4.4a.81.81,0,0,1,.89.9c0,1.45,0,2.89,0,4.35a.85.85,0,0,1-.93.92C215.54,53.34,214.79,53.33,214.06,53.33Z"/><path class="cls-8" d="M17.72,40.61c-9.39,0-17,9.94-17,22.18S8.33,85,17.72,85s17-9.94,17-22.19S27.1,40.61,17.72,40.61Zm1.45,22.18a9,9,0,0,1,0-17.92,9,9,0,0,1,0,17.92Z"/><path class="cls-8" d="M17.72,40.61c-9.39,0-17,9.94-17,22.18S8.33,85,17.72,85s17-9.94,17-22.19S27.1,40.61,17.72,40.61Zm1.45,22.18a9,9,0,0,1,0-17.92,9,9,0,0,1,0,17.92Z"/><path class="cls-9" d="M38.81,18.34c-5.67,0-10.27,5.77-10.27,12.88s4.6,12.87,10.27,12.87,10.28-5.76,10.28-12.87S44.48,18.34,38.81,18.34Zm.82,12.88a5.18,5.18,0,1,1,4.93-5.17A5.07,5.07,0,0,1,39.63,31.22Z"/><path class="cls-10" d="M58.33,5.38c-3.51,0-6.35,3.56-6.35,8s2.84,8,6.35,8,6.34-3.56,6.34-8S61.83,5.38,58.33,5.38Zm.47,8.4a3.21,3.21,0,0,1-3.13-3.28,3.12,3.12,0,1,1,6.24,0A3.19,3.19,0,0,1,58.8,13.78Z"/><path class="cls-11" d="M75,.35c-1.55,0-2.83,1.78-2.83,4s1.28,4,2.83,4,2.84-1.78,2.84-4S76.59.35,75,.35Zm.27,4a1.52,1.52,0,0,1-1.41-1.61,1.41,1.41,0,1,1,2.79,0A1.51,1.51,0,0,1,75.3,4.33Z"/><path class="cls-7" d="M311.23,97.57a2.15,2.15,0,0,1-1.44,2,2.43,2.43,0,0,1-2.54-.74,1.77,1.77,0,0,1,.11-2.34c.41-.46.46-.66,0-1.15a1.52,1.52,0,0,1,.24-2.15,2.31,2.31,0,0,1,2.73-.15,1.51,1.51,0,0,1,.46,2.12c-.23.3-.52.7-.32,1.08.11.22.35.36.48.57a1.57,1.57,0,0,1,.25.8m-.94.22v-.15a1.8,1.8,0,0,0-1.37-1.43h-.21c-.69,0-.86.65-.9,1.24a1.26,1.26,0,0,0,1.28,1.36,1.18,1.18,0,0,0,1.2-1M309,93.44a1.16,1.16,0,0,0-.86.36.85.85,0,0,0,.05,1.17,1.55,1.55,0,0,0,1.12.61c.72,0,.8-.63.79-1.14a1,1,0,0,0-1.1-1"/><path class="cls-7" d="M296.42,96.08a5.44,5.44,0,0,1-.33,2.36,1.76,1.76,0,0,1-1.75,1.18,1.7,1.7,0,0,1-1.75-1.17,6.59,6.59,0,0,1,0-4.69,1.7,1.7,0,0,1,1.77-1.13,1.79,1.79,0,0,1,1.73,1.22,5.28,5.28,0,0,1,.32,2.23m-.89,0a4.72,4.72,0,0,0-.22-1.86,1,1,0,0,0-.95-.79,1,1,0,0,0-1.05.82,8.78,8.78,0,0,0,0,3.68,1,1,0,0,0,1,.85,1,1,0,0,0,1-.89,5.52,5.52,0,0,0,.18-1.81"/><path class="cls-7" d="M306.35,96.07a10.75,10.75,0,0,1-.05,1.14,3.91,3.91,0,0,1-.27,1.17,1.8,1.8,0,0,1-1.85,1.24,1.71,1.71,0,0,1-1.71-1.24,6.83,6.83,0,0,1,0-4.57,1.74,1.74,0,0,1,1.75-1.18A1.77,1.77,0,0,1,306,93.8a4.68,4.68,0,0,1,.34,1.65c0,.2,0,.41,0,.62m-3.33,0c0,.23,0,.45,0,.68s.06.67.11,1c0,0,0,.09,0,.13a1,1,0,0,0,1,.89,1,1,0,0,0,1-.85,7.14,7.14,0,0,0,0-3.67,1,1,0,0,0-1.05-.82,1,1,0,0,0-1,.89,8.22,8.22,0,0,0-.11.83c0,.26-.06.53-.06.79Z"/><path class="cls-7" d="M281.1,99.63a3.61,3.61,0,0,1-1-.12l-.2-.07a2.71,2.71,0,0,1-.68-.28.57.57,0,0,1-.25-.52.66.66,0,0,1,.06-.26c.2-.47.47-.06.68.05a3,3,0,0,0,1.94.32,1.08,1.08,0,0,0,.95-1,1,1,0,0,0-.81-1.08c-.5-.15-1-.23-1.53-.41a2.07,2.07,0,0,1-.86-.63,1.93,1.93,0,0,1-.3-1,1.81,1.81,0,0,1,1.17-1.78,2.82,2.82,0,0,1,1.52-.2,3.93,3.93,0,0,1,.68.15,1.56,1.56,0,0,1,.63.24.61.61,0,0,1,.22.52,1,1,0,0,1-.1.35c-.05.1-.13.2-.26.17s-.22-.18-.32-.26a2.35,2.35,0,0,0-.65-.27,1.83,1.83,0,0,0-1.34,0,1,1,0,0,0-.63.93.93.93,0,0,0,.6.87c.41.16.84.27,1.27.4,1.22.35,1.69.9,1.64,1.91a1.92,1.92,0,0,1-.37,1,2.14,2.14,0,0,1-.88.69,3,3,0,0,1-1.2.21"/><path class="cls-7" d="M316.25,95.7a4.77,4.77,0,0,1-.49,2.46,2.6,2.6,0,0,1-2.49,1.46c-.39,0-.75,0-.76-.53,0-.12,0-.31.11-.39a.27.27,0,0,1,.26,0,2.07,2.07,0,0,0,.33.1,2,2,0,0,0,1.06-.19,1.19,1.19,0,0,0,.39-.31,1.63,1.63,0,0,0,.33-.45h0a4.28,4.28,0,0,0,.23-.55.47.47,0,0,0-.08-.52l-.09-.05c-.19-.07-.4.11-.58.17a2,2,0,0,1-2.41-1.18,2.17,2.17,0,0,1-.07-.24,2.34,2.34,0,0,1,1.53-2.76A2,2,0,0,1,316,94.12a4.68,4.68,0,0,1,.21,1.58m-.89-.54c0-1-.54-1.71-1.3-1.71a1.26,1.26,0,0,0-1.21,1.44,1.2,1.2,0,0,0,1.41,1.23c.58-.05,1.21-.1,1.1-1"/><path class="cls-7" d="M299.38,92.91h1.34c.26,0,.41.11.41.4s-.19.38-.43.39c-.57,0-1.16,0-1.74,0s-.68.24-.65.73-.11.92.62.88a1.89,1.89,0,0,1,2.12,1.26,2.25,2.25,0,0,1-.49,2.36,2.53,2.53,0,0,1-2.74.51c-.44-.14-.77-.33-.6-.82.21-.65.56-.07.79,0,1.29.37,2.12,0,2.21-1.08s-.59-1.64-1.87-1.36c-.87.18-1-.08-.89-.79a4.86,4.86,0,0,0,0-.54c0-2,0-2,1.92-2"/><path class="cls-7" d="M274.84,96.2c0-.89,0-1.78,0-2.67,0-.46.15-.65.62-.64.94,0,1.87,0,2.8,0,.3,0,.53.07.5.44s-.3.38-.56.38c-.62,0-1.24,0-1.87,0-.18,0-.43,0-.54.17a.86.86,0,0,0-.06.57c0,.22,0,.42,0,.63a.42.42,0,0,0,.16.41.65.65,0,0,0,.47.09,14.41,14.41,0,0,1,1.61,0c.27,0,.66-.12.7.37s-.35.41-.64.44h-.4c-1.89,0-1.89,0-1.9,2v.67c0,.27,0,.52-.4.55s-.48-.27-.48-.6V96.2"/><path class="cls-7" d="M291.38,93.66a1.72,1.72,0,0,1-.3.87l-2.2,4.39c-.08.16-.16.32-.25.47a.57.57,0,0,1-.82.14c-.24-.15,0-.39.09-.55.78-1.54,1.55-3.09,2.37-4.61.29-.56.16-.68-.41-.66s-1.42,0-2.13,0c-.29,0-.54,0-.53-.41s.26-.4.54-.4c1,0,2,0,3.06,0,.65,0,.6.35.58.76"/><polygon class="cls-7" points="300.82 57.91 300.82 62.46 301.63 62.46 301.63 57.09 300.89 57.09 299.46 57.8 299.71 58.33 300.82 57.91"/><path class="cls-7" d="M297,57.71c1.07,0,1.15.79,1.15,2.06S298,61.83,297,61.83s-1.13-.79-1.13-2.06.06-2.06,1.13-2.06m-2,2.06c0,1.8.39,2.77,2,2.77s2-1,2-2.77S298.55,57,297,57s-2,1-2,2.76"/><path class="cls-7" d="M297.18,65.26a.3.3,0,0,0-.31.3.31.31,0,0,0,.31.31.32.32,0,0,0,.31-.31.31.31,0,0,0-.31-.3"/><rect class="cls-7" x="296.91" y="66.35" width="0.54" height="2.77"/><path class="cls-7" d="M294.12,49.38c1.07,0,1.49.65,1.49,2.06s-.42,2.06-1.49,2.06-1.5-.65-1.5-2.06.42-2.06,1.5-2.06m0,4.83c1.62,0,2.31-1,2.31-2.77s-.69-2.76-2.31-2.76-2.32.94-2.32,2.76.69,2.77,2.32,2.77"/><path class="cls-7" d="M292.18,61.84c-1.06,0-1.13-.8-1.13-2.07s.07-2.05,1.13-2.05,1.14.78,1.14,2.05-.06,2.07-1.14,2.07m0-4.83c-1.57,0-2,1-2,2.76s.39,2.77,2,2.77,2-1,2-2.77-.39-2.76-2-2.76"/><path class="cls-7" d="M289.13,51.67c.85.26,1.24.4,1.24,1s-.42.86-1.25.86a9.52,9.52,0,0,1-1.37-.13l-.09.68a9.67,9.67,0,0,0,1.53.15c1.23,0,2-.5,2-1.58s-.75-1.35-1.45-1.56-1.29-.37-1.29-1,.51-.72,1.1-.72a7,7,0,0,1,1.28.14l.11-.68a8,8,0,0,0-1.43-.17c-1.13,0-1.87.49-1.87,1.49s.61,1.22,1.5,1.51"/><rect class="cls-7" x="285.95" y="48.76" width="0.81" height="5.37"/><path class="cls-7" d="M287.41,57.71c.89,0,1.11.66,1.14,1.82a3.46,3.46,0,0,1-1.09.21c-.76,0-1-.37-1-1s.31-1,1-1m-.15,2.69a3.16,3.16,0,0,0,1.27-.27c0,1.1-.31,1.7-1.37,1.7a4.94,4.94,0,0,1-1.06-.14l-.11.69a5.75,5.75,0,0,0,1.28.16c1.68,0,2.1-1.23,2.1-2.86s-.5-2.67-1.91-2.67a1.64,1.64,0,0,0-1.85,1.76,1.48,1.48,0,0,0,1.65,1.63"/><path class="cls-7" d="M287.52,65.71c.78,0,1.08.47,1.08,1.48s-.3,1.49-1.08,1.49-1.08-.47-1.08-1.49.3-1.48,1.08-1.48m-1,3.26c.46.32,1.18.54,2,1l.24-.51a4.07,4.07,0,0,0-1.12-.36v0a1.47,1.47,0,0,0,1.12-.45,2.2,2.2,0,0,0,.42-1.48c0-1.28-.51-2-1.68-2s-1.67.68-1.67,2a1.86,1.86,0,0,0,.72,1.76"/><path class="cls-7" d="M288.76,71.93l-.87,2.57h0L287,71.93h-.83c-.08,1.29-.13,2.58-.18,3.87h.58c0-1,.07-2.09.12-3.11h0l.86,2.45h.61l.86-2.45h0c.05,1,.1,2.08.13,3.11h.59c0-1.29-.11-2.58-.19-3.87Z"/><path class="cls-7" d="M291.64,68.9l0,.23h.4V66.36h-.55v2.17a1.38,1.38,0,0,1-.65.18c-.33,0-.49-.16-.49-.53V66.36h-.55v1.89a.83.83,0,0,0,.9.94,1.66,1.66,0,0,0,.9-.29"/><path class="cls-7" d="M292,75.22a1.18,1.18,0,0,1-.63.2.42.42,0,0,1-.48-.45c0-.34.25-.44.6-.44H292ZM291.47,73a4.22,4.22,0,0,0-.94.12l.08.47a3.88,3.88,0,0,1,.82-.1c.38,0,.58.08.58.46v.24l-.61,0c-.63,0-1.06.28-1.06.86a.84.84,0,0,0,.91.87,1.27,1.27,0,0,0,.84-.3l.06.24h.4v-2c0-.67-.47-.88-1.08-.88"/><path class="cls-7" d="M293.2,68.3c0-.34.27-.44.6-.44h.52v.68a1.17,1.17,0,0,1-.62.2c-.32,0-.5-.17-.5-.45m1.21.6.06.23h.4v-2c0-.68-.49-.88-1.1-.88a4.2,4.2,0,0,0-.93.12l.08.47a4,4,0,0,1,.82-.1c.38,0,.58.08.58.46v.25l-.61,0c-.63,0-1.06.28-1.06.86a.84.84,0,0,0,.92.87,1.42,1.42,0,0,0,.84-.29"/><path class="cls-7" d="M294.65,73a1.49,1.49,0,0,0-.91.32l-.05-.25h-.4V75.8h.55V73.63a1.62,1.62,0,0,1,.67-.18c.32,0,.49.16.49.51V75.8h.54V73.89a.83.83,0,0,0-.89-.93"/><rect class="cls-7" x="295.6" y="65.26" width="0.54" height="3.87"/><path class="cls-7" d="M297.76,75.22a1.18,1.18,0,0,1-.63.2.43.43,0,0,1-.49-.45c0-.34.26-.44.6-.44h.52ZM297.21,73a4.2,4.2,0,0,0-.93.12l.08.47a3.88,3.88,0,0,1,.82-.1c.38,0,.58.08.58.46v.24l-.61,0c-.64,0-1.06.28-1.06.86a.84.84,0,0,0,.91.87,1.27,1.27,0,0,0,.84-.3l.06.24h.4v-2c0-.67-.47-.88-1.09-.88"/><path class="cls-7" d="M299.72,69l-.17-.41a1,1,0,0,1-.38.1c-.21,0-.27-.11-.27-.31V66.8h.75v-.45h-.75v-.79h-.48l0,.82-.44,0v.4h.42v1.66c0,.5.23.72.68.72a1.52,1.52,0,0,0,.68-.16"/><path class="cls-7" d="M300.66,73.47v1.77a1.21,1.21,0,0,1-.57.13c-.49,0-.62-.32-.62-.94s.14-1,.65-1a3.39,3.39,0,0,1,.54,0m-1.74.94c0,.94.3,1.45,1.05,1.45a1.18,1.18,0,0,0,.69-.22V76c0,.41-.29.48-.62.48a4.32,4.32,0,0,1-.76-.08l-.07.47a5.81,5.81,0,0,0,.88.09c.66,0,1.11-.23,1.11-.9V73.16a3.73,3.73,0,0,0-1.14-.2c-.8,0-1.14.44-1.14,1.45"/><path class="cls-7" d="M302,66.35c-.18.8-.42,1.67-.64,2.35h0a22.33,22.33,0,0,1-.65-2.35H300a28.27,28.27,0,0,0,.86,2.78h.28c-.1.29-.24.67-.41,1.09h.53a29.75,29.75,0,0,0,1.19-3.87Z"/><path class="cls-7" d="M302.37,74.18c0-.43.2-.73.59-.73s.55.34.55.73Zm1.68.06c0-.77-.36-1.27-1.09-1.27s-1.15.59-1.15,1.44.48,1.45,1.24,1.45a2.33,2.33,0,0,0,1-.25l-.17-.43a2,2,0,0,1-.77.2c-.48,0-.7-.28-.74-.77H304a2.51,2.51,0,0,0,0-.37"/><path class="cls-7" d="M307.56,73a1.38,1.38,0,0,0-.89.35A.82.82,0,0,0,306,73a1.32,1.32,0,0,0-.83.32l0-.25h-.41V75.8h.55V73.62a1.13,1.13,0,0,1,.58-.17c.33,0,.49.18.49.53V75.8h.54V73.92a.89.89,0,0,0,0-.28,1.37,1.37,0,0,1,.63-.19c.32,0,.47.18.47.53V75.8h.55V73.92a.84.84,0,0,0-.89-1"/><path class="cls-7" d="M309.6,74.18c0-.43.2-.73.59-.73s.55.34.56.73Zm1.68.06c0-.77-.36-1.27-1.09-1.27s-1.15.59-1.15,1.44.49,1.45,1.25,1.45a2.28,2.28,0,0,0,1-.25l-.17-.43a2,2,0,0,1-.77.2c-.47,0-.7-.28-.74-.77h1.65a1.63,1.63,0,0,0,0-.37"/><path class="cls-7" d="M313.26,73a1.52,1.52,0,0,0-.91.32l0-.25h-.4V75.8h.55V73.63a1.58,1.58,0,0,1,.66-.18c.33,0,.49.16.49.51V75.8h.55V73.89a.83.83,0,0,0-.9-.93"/><path class="cls-7" d="M316.22,75.28a.86.86,0,0,1-.37.1c-.21,0-.26-.11-.26-.31v-1.6h.74V73h-.74v-.79h-.5l0,.82-.44,0v.4H315v1.66c0,.5.24.72.69.72a1.58,1.58,0,0,0,.68-.16Z"/><path class="cls-7" d="M313.86,41.61H261.15a35.64,35.64,0,0,0-6.42.43,23.68,23.68,0,0,0-2.24,45.86l.17,0,.64.19a30.77,30.77,0,0,0,8.25.74h52.31a23.63,23.63,0,0,0,0-47.26m0,45.16H269.47a23.69,23.69,0,0,0-.07-43.05h44.46a21.53,21.53,0,1,1,0,43.05M281.06,65.2a21.55,21.55,0,1,1-21.55-21.54A21.55,21.55,0,0,1,281.06,65.2"/><path class="cls-7" d="M266.13,54.56a.77.77,0,0,0,.76-.77.77.77,0,0,0-1.53,0,.77.77,0,0,0,.77.77"/><path class="cls-7" d="M263.33,49.18v4a1.2,1.2,0,0,0,1.38,1.36,1.3,1.3,0,0,0,.23,0v-.95c-.33,0-.44-.11-.44-.4v-4Z"/><path class="cls-7" d="M263.91,48.39a.77.77,0,1,0-.76-.76.76.76,0,0,0,.76.76"/><path class="cls-7" d="M260.82,52.26c.71.06.87.26.87.65s-.41.65-1.25.65a4.7,4.7,0,0,1-1.56-.29v1a5.07,5.07,0,0,0,1.73.28c1.68,0,2.24-.79,2.24-1.7s-.41-1.44-2-1.58c-.68-.06-.87-.21-.87-.59s.39-.65,1-.65a4.59,4.59,0,0,1,1.61.29v-1a4,4,0,0,0-1.63-.27c-1.55,0-2.13.77-2.13,1.67s.38,1.4,2,1.54"/><path class="cls-7" d="M259.57,84.36s11.7-19.78,11.77-20h-23.6c.07.21,11.83,20,11.83,20"/><path class="cls-7" d="M265.07,56.2a6.51,6.51,0,0,0-5.46,2.91,6.48,6.48,0,0,0-5.45-2.91,6.62,6.62,0,0,0-6.67,6.25h24.15a6.57,6.57,0,0,0-6.57-6.25"/><path class="cls-7" d="M254.7,54a2.75,2.75,0,0,0,1.7.55c1.53,0,2.1-1,2.1-2.75s-.57-2.75-2.1-2.75a2.65,2.65,0,0,0-1.4.4v-2.9h-1.18v7.87h.69Zm.3-3.65a2.22,2.22,0,0,1,1.13-.31c1,0,1.19.79,1.19,1.76s-.16,1.75-1.19,1.75a2.24,2.24,0,0,1-1.13-.3Z"/><path class="cls-7" d="M304.3,62.61V62c1.46-1.28,2.5-2.27,2.5-3.15,0-.66-.49-.89-1-.89a3.89,3.89,0,0,0-1.34.28l-.23-.63a4.21,4.21,0,0,1,1.63-.36c1.06,0,1.79.53,1.79,1.58s-1.16,2.14-2.29,3.09h2.36v.71Z"/><path class="cls-7" d="M316.1,61.75a7.84,7.84,0,0,0,1.28.12,1.43,1.43,0,0,0,1.06-.29,1.11,1.11,0,0,0,.25-.8c0-.78-.35-1.05-1.1-1.05H316.1l.09-2.54h3v.7h-2.27l0,1.16h.83c1.12,0,1.79.47,1.79,1.74a1.73,1.73,0,0,1-.53,1.36,2.12,2.12,0,0,1-1.47.42,8.78,8.78,0,0,1-1.51-.15Z"/><polygon class="cls-7" points="313.83 62.56 313.83 58.07 312.73 58.49 312.49 57.95 313.9 57.27 314.61 57.27 314.61 62.56 313.83 62.56"/><path class="cls-7" d="M308.39,59.86c0-1.77.37-2.72,1.92-2.72s1.9,1,1.9,2.72-.36,2.73-1.9,2.73-1.92-1-1.92-2.73m3,0c0-1.25-.08-2-1.12-2s-1.13.78-1.13,2,.07,2,1.13,2,1.12-.79,1.12-2"/><path class="cls-7" d="M303,58.82a.42.42,0,0,1,.42.42.42.42,0,0,1-.83,0,.41.41,0,0,1,.41-.42m0,3a.42.42,0,1,1-.41.42.42.42,0,0,1,.41-.42"/><rect class="cls-7" x="225.93" width="0.64" height="114.02"/></svg>